<svg width="1128" height="833" viewBox="0 0 1128 833" fill="none" xmlns="http://www.w3.org/2000/svg">
<rect width="1128" height="833" fill="#1A202C"/>
<path d="M790 404C790 474.133 770.067 542.822 732.525 602.061C694.983 661.3 641.377 708.649 577.956 738.589C514.535 768.53 443.91 779.828 374.314 771.169C304.717 762.509 239.015 734.247 184.865 689.677L420 404H790Z" fill="#BEE3F8"/>
<path d="M186.47 690.991C110.355 629.055 61.9619 539.419 51.9362 441.802C41.9104 344.186 71.0733 246.584 133.009 170.47C194.945 94.3551 284.581 45.962 382.198 35.9362C479.814 25.9104 577.415 55.0732 653.53 117.009L420 404L186.47 690.991Z" fill="#CBD5E0"/>
<path d="M718.694 185.638C764.995 248.972 789.966 325.385 790 403.838L420 404L718.694 185.638Z" fill="#63B3ED"/>
<path d="M653.33 116.846C678.031 136.918 700.04 160.092 718.81 185.797L420 404L653.33 116.846Z" fill="#3182CE"/>
<circle cx="420" cy="404" r="249" fill="#1A202C"/>
<rect x="850" y="96" width="38" height="38" fill="#CBD5E0"/>
<rect x="850" y="213" width="38" height="38" fill="#3182CE"/>
<rect x="850" y="270" width="38" height="38" fill="#63B3ED"/>
<rect x="850" y="327" width="38" height="38" fill="#BEE3F8"/>
<path d="M899.918 123V105.545H910.861V107.812H902.551V113.131H910.29V115.389H902.551V120.733H910.963V123H899.918ZM925.373 109.909L920.626 123H917.898L913.143 109.909H915.879L919.194 119.983H919.33L922.637 109.909H925.373ZM932.964 123.264C931.675 123.264 930.564 122.989 929.632 122.438C928.706 121.881 927.99 121.099 927.484 120.094C926.984 119.082 926.734 117.898 926.734 116.54C926.734 115.199 926.984 114.017 927.484 112.994C927.99 111.972 928.695 111.173 929.598 110.599C930.507 110.026 931.57 109.739 932.786 109.739C933.524 109.739 934.24 109.861 934.933 110.105C935.626 110.349 936.249 110.733 936.8 111.256C937.351 111.778 937.786 112.457 938.104 113.293C938.422 114.122 938.581 115.131 938.581 116.318V117.222H928.175V115.312H936.084C936.084 114.642 935.947 114.048 935.675 113.531C935.402 113.009 935.018 112.597 934.524 112.295C934.036 111.994 933.462 111.844 932.803 111.844C932.087 111.844 931.462 112.02 930.928 112.372C930.399 112.719 929.99 113.173 929.7 113.736C929.416 114.293 929.274 114.898 929.274 115.551V117.043C929.274 117.918 929.428 118.662 929.734 119.276C930.047 119.889 930.482 120.358 931.038 120.682C931.595 121 932.246 121.159 932.99 121.159C933.473 121.159 933.913 121.091 934.311 120.955C934.709 120.812 935.053 120.602 935.342 120.324C935.632 120.045 935.854 119.702 936.007 119.293L938.419 119.727C938.226 120.437 937.879 121.06 937.379 121.594C936.885 122.122 936.263 122.534 935.513 122.83C934.768 123.119 933.919 123.264 932.964 123.264ZM941.408 123V109.909H943.871V111.989H944.008C944.246 111.284 944.667 110.73 945.269 110.327C945.877 109.918 946.565 109.713 947.332 109.713C947.491 109.713 947.678 109.719 947.894 109.73C948.116 109.741 948.289 109.756 948.414 109.773V112.21C948.312 112.182 948.13 112.151 947.869 112.116C947.607 112.077 947.346 112.057 947.085 112.057C946.482 112.057 945.945 112.185 945.474 112.44C945.008 112.69 944.638 113.04 944.366 113.489C944.093 113.932 943.957 114.437 943.957 115.006V123H941.408ZM952.629 127.909C952.248 127.909 951.901 127.878 951.589 127.815C951.276 127.759 951.043 127.696 950.89 127.628L951.504 125.54C951.969 125.665 952.384 125.719 952.748 125.702C953.112 125.685 953.433 125.548 953.711 125.293C953.995 125.037 954.245 124.619 954.461 124.04L954.776 123.17L949.987 109.909H952.714L956.029 120.068H956.165L959.481 109.909H962.217L956.822 124.747C956.572 125.429 956.254 126.006 955.867 126.477C955.481 126.955 955.021 127.313 954.487 127.551C953.952 127.79 953.333 127.909 952.629 127.909ZM969.68 123.264C968.453 123.264 967.382 122.983 966.467 122.42C965.553 121.858 964.842 121.071 964.337 120.06C963.831 119.048 963.578 117.866 963.578 116.514C963.578 115.156 963.831 113.969 964.337 112.952C964.842 111.935 965.553 111.145 966.467 110.582C967.382 110.02 968.453 109.739 969.68 109.739C970.908 109.739 971.979 110.02 972.893 110.582C973.808 111.145 974.518 111.935 975.024 112.952C975.53 113.969 975.783 115.156 975.783 116.514C975.783 117.866 975.53 119.048 975.024 120.06C974.518 121.071 973.808 121.858 972.893 122.42C971.979 122.983 970.908 123.264 969.68 123.264ZM969.689 121.125C970.484 121.125 971.143 120.915 971.666 120.494C972.189 120.074 972.575 119.514 972.825 118.815C973.081 118.116 973.209 117.347 973.209 116.506C973.209 115.67 973.081 114.903 972.825 114.205C972.575 113.5 972.189 112.935 971.666 112.509C971.143 112.082 970.484 111.869 969.689 111.869C968.888 111.869 968.223 112.082 967.695 112.509C967.172 112.935 966.783 113.5 966.527 114.205C966.277 114.903 966.152 115.67 966.152 116.506C966.152 117.347 966.277 118.116 966.527 118.815C966.783 119.514 967.172 120.074 967.695 120.494C968.223 120.915 968.888 121.125 969.689 121.125ZM981.175 115.227V123H978.627V109.909H981.073V112.04H981.235C981.536 111.347 982.008 110.79 982.65 110.369C983.298 109.949 984.113 109.739 985.096 109.739C985.988 109.739 986.769 109.926 987.44 110.301C988.11 110.67 988.63 111.222 988.999 111.955C989.369 112.687 989.553 113.594 989.553 114.673V123H987.005V114.98C987.005 114.031 986.758 113.29 986.263 112.756C985.769 112.216 985.09 111.946 984.227 111.946C983.636 111.946 983.11 112.074 982.65 112.33C982.195 112.585 981.835 112.96 981.567 113.455C981.306 113.943 981.175 114.534 981.175 115.227ZM998.613 123.264C997.323 123.264 996.212 122.989 995.281 122.438C994.354 121.881 993.638 121.099 993.133 120.094C992.633 119.082 992.383 117.898 992.383 116.54C992.383 115.199 992.633 114.017 993.133 112.994C993.638 111.972 994.343 111.173 995.246 110.599C996.156 110.026 997.218 109.739 998.434 109.739C999.173 109.739 999.888 109.861 1000.58 110.105C1001.27 110.349 1001.9 110.733 1002.45 111.256C1003 111.778 1003.43 112.457 1003.75 113.293C1004.07 114.122 1004.23 115.131 1004.23 116.318V117.222H993.823V115.312H1001.73C1001.73 114.642 1001.6 114.048 1001.32 113.531C1001.05 113.009 1000.67 112.597 1000.17 112.295C999.684 111.994 999.11 111.844 998.451 111.844C997.735 111.844 997.11 112.02 996.576 112.372C996.048 112.719 995.638 113.173 995.349 113.736C995.065 114.293 994.923 114.898 994.923 115.551V117.043C994.923 117.918 995.076 118.662 995.383 119.276C995.695 119.889 996.13 120.358 996.687 120.682C997.244 121 997.894 121.159 998.638 121.159C999.121 121.159 999.562 121.091 999.96 120.955C1000.36 120.812 1000.7 120.602 1000.99 120.324C1001.28 120.045 1001.5 119.702 1001.66 119.293L1004.07 119.727C1003.87 120.437 1003.53 121.06 1003.03 121.594C1002.53 122.122 1001.91 122.534 1001.16 122.83C1000.42 123.119 999.567 123.264 998.613 123.264Z" fill="#CBD5E0"/>
<path d="M911.679 228.185H909.463C909.378 227.711 909.219 227.295 908.987 226.935C908.755 226.575 908.471 226.269 908.135 226.018C907.799 225.768 907.422 225.578 907.006 225.45C906.594 225.322 906.156 225.259 905.692 225.259C904.854 225.259 904.103 225.469 903.44 225.891C902.782 226.312 902.261 226.93 901.878 227.744C901.499 228.559 901.31 229.553 901.31 230.727C901.31 231.911 901.499 232.91 901.878 233.724C902.261 234.539 902.785 235.154 903.447 235.571C904.11 235.988 904.856 236.196 905.685 236.196C906.144 236.196 906.58 236.134 906.991 236.011C907.408 235.884 907.785 235.696 908.121 235.45C908.457 235.204 908.741 234.903 908.973 234.548C909.21 234.188 909.373 233.777 909.463 233.312L911.679 233.32C911.561 234.035 911.331 234.693 910.99 235.294C910.654 235.891 910.221 236.407 909.69 236.842C909.165 237.273 908.563 237.607 907.886 237.844C907.209 238.08 906.471 238.199 905.67 238.199C904.411 238.199 903.289 237.901 902.304 237.304C901.319 236.703 900.543 235.843 899.974 234.726C899.411 233.608 899.129 232.276 899.129 230.727C899.129 229.174 899.413 227.841 899.982 226.729C900.55 225.611 901.326 224.754 902.311 224.158C903.296 223.556 904.416 223.256 905.67 223.256C906.442 223.256 907.162 223.367 907.83 223.589C908.502 223.807 909.106 224.129 909.641 224.555C910.176 224.977 910.618 225.493 910.969 226.104C911.319 226.71 911.556 227.403 911.679 228.185ZM918.73 238.22C917.707 238.22 916.815 237.986 916.052 237.517C915.29 237.048 914.698 236.393 914.277 235.55C913.855 234.707 913.645 233.722 913.645 232.595C913.645 231.464 913.855 230.474 914.277 229.626C914.698 228.779 915.29 228.121 916.052 227.652C916.815 227.183 917.707 226.949 918.73 226.949C919.752 226.949 920.645 227.183 921.407 227.652C922.17 228.121 922.761 228.779 923.183 229.626C923.604 230.474 923.815 231.464 923.815 232.595C923.815 233.722 923.604 234.707 923.183 235.55C922.761 236.393 922.17 237.048 921.407 237.517C920.645 237.986 919.752 238.22 918.73 238.22ZM918.737 236.438C919.4 236.438 919.949 236.262 920.385 235.912C920.82 235.562 921.142 235.095 921.35 234.513C921.564 233.93 921.67 233.289 921.67 232.588C921.67 231.892 921.564 231.253 921.35 230.67C921.142 230.083 920.82 229.612 920.385 229.257C919.949 228.902 919.4 228.724 918.737 228.724C918.069 228.724 917.515 228.902 917.075 229.257C916.639 229.612 916.315 230.083 916.102 230.67C915.894 231.253 915.789 231.892 915.789 232.588C915.789 233.289 915.894 233.93 916.102 234.513C916.315 235.095 916.639 235.562 917.075 235.912C917.515 236.262 918.069 236.438 918.737 236.438ZM934.36 229.754L932.435 230.095C932.355 229.849 932.227 229.615 932.052 229.392C931.881 229.17 931.649 228.987 931.356 228.845C931.062 228.703 930.695 228.632 930.255 228.632C929.654 228.632 929.152 228.767 928.749 229.037C928.347 229.302 928.146 229.645 928.146 230.067C928.146 230.431 928.281 230.725 928.55 230.947C928.82 231.17 929.256 231.352 929.857 231.494L931.59 231.892C932.594 232.124 933.342 232.482 933.835 232.964C934.327 233.447 934.573 234.075 934.573 234.847C934.573 235.5 934.384 236.082 934.005 236.594C933.631 237.1 933.108 237.498 932.435 237.787C931.768 238.076 930.994 238.22 930.113 238.22C928.891 238.22 927.895 237.96 927.123 237.439C926.351 236.913 925.878 236.168 925.702 235.202L927.755 234.889C927.883 235.424 928.146 235.829 928.543 236.104C928.941 236.374 929.46 236.509 930.099 236.509C930.795 236.509 931.351 236.364 931.768 236.075C932.184 235.782 932.393 235.424 932.393 235.003C932.393 234.662 932.265 234.375 932.009 234.143C931.758 233.911 931.372 233.736 930.852 233.618L929.005 233.213C927.987 232.981 927.234 232.612 926.746 232.105C926.263 231.598 926.022 230.957 926.022 230.18C926.022 229.536 926.202 228.973 926.562 228.49C926.922 228.007 927.419 227.631 928.053 227.361C928.688 227.086 929.415 226.949 930.234 226.949C931.413 226.949 932.341 227.205 933.018 227.716C933.695 228.223 934.142 228.902 934.36 229.754ZM936.908 238V227.091H938.946V228.866H939.081C939.309 228.265 939.68 227.796 940.196 227.46C940.712 227.119 941.33 226.949 942.05 226.949C942.779 226.949 943.39 227.119 943.882 227.46C944.38 227.801 944.747 228.27 944.983 228.866H945.097C945.357 228.284 945.772 227.82 946.34 227.474C946.908 227.124 947.585 226.949 948.371 226.949C949.361 226.949 950.168 227.259 950.793 227.879C951.423 228.5 951.738 229.435 951.738 230.685V238H949.614V230.884C949.614 230.145 949.413 229.61 949.01 229.278C948.608 228.947 948.127 228.781 947.569 228.781C946.877 228.781 946.34 228.994 945.956 229.42C945.573 229.842 945.381 230.384 945.381 231.047V238H943.265V230.749C943.265 230.157 943.08 229.681 942.711 229.321C942.341 228.961 941.861 228.781 941.269 228.781C940.866 228.781 940.495 228.888 940.154 229.101C939.818 229.309 939.545 229.6 939.337 229.974C939.133 230.348 939.032 230.782 939.032 231.274V238H936.908ZM954.584 238V227.091H956.707V238H954.584ZM955.656 225.408C955.287 225.408 954.97 225.285 954.705 225.038C954.444 224.787 954.314 224.489 954.314 224.143C954.314 223.793 954.444 223.495 954.705 223.249C954.97 222.998 955.287 222.872 955.656 222.872C956.026 222.872 956.34 222.998 956.601 223.249C956.866 223.495 956.999 223.793 956.999 224.143C956.999 224.489 956.866 224.787 956.601 225.038C956.34 225.285 956.026 225.408 955.656 225.408ZM964.159 238.22C963.104 238.22 962.194 237.981 961.432 237.503C960.675 237.02 960.092 236.355 959.685 235.507C959.278 234.66 959.074 233.689 959.074 232.595C959.074 231.487 959.283 230.509 959.699 229.662C960.116 228.81 960.703 228.144 961.461 227.666C962.218 227.188 963.111 226.949 964.138 226.949C964.967 226.949 965.705 227.103 966.354 227.411C967.003 227.714 967.526 228.14 967.924 228.689C968.326 229.238 968.565 229.88 968.641 230.614H966.574C966.461 230.102 966.2 229.662 965.793 229.293C965.391 228.923 964.851 228.739 964.174 228.739C963.582 228.739 963.063 228.895 962.618 229.207C962.178 229.515 961.835 229.955 961.588 230.528C961.342 231.097 961.219 231.769 961.219 232.545C961.219 233.341 961.34 234.027 961.581 234.605C961.823 235.183 962.164 235.63 962.604 235.947C963.049 236.265 963.572 236.423 964.174 236.423C964.576 236.423 964.941 236.35 965.267 236.203C965.599 236.052 965.876 235.836 966.098 235.557C966.326 235.277 966.484 234.941 966.574 234.548H968.641C968.565 235.254 968.336 235.884 967.952 236.438C967.569 236.991 967.055 237.427 966.411 237.744C965.772 238.062 965.021 238.22 964.159 238.22ZM988.456 228.185H986.24C986.155 227.711 985.997 227.295 985.765 226.935C985.533 226.575 985.248 226.269 984.912 226.018C984.576 225.768 984.2 225.578 983.783 225.45C983.371 225.322 982.933 225.259 982.469 225.259C981.631 225.259 980.881 225.469 980.218 225.891C979.56 226.312 979.039 226.93 978.655 227.744C978.276 228.559 978.087 229.553 978.087 230.727C978.087 231.911 978.276 232.91 978.655 233.724C979.039 234.539 979.562 235.154 980.225 235.571C980.888 235.988 981.633 236.196 982.462 236.196C982.921 236.196 983.357 236.134 983.769 236.011C984.185 235.884 984.562 235.696 984.898 235.45C985.234 235.204 985.518 234.903 985.75 234.548C985.987 234.188 986.15 233.777 986.24 233.312L988.456 233.32C988.338 234.035 988.108 234.693 987.767 235.294C987.431 235.891 986.998 236.407 986.468 236.842C985.942 237.273 985.341 237.607 984.664 237.844C983.987 238.08 983.248 238.199 982.448 238.199C981.188 238.199 980.066 237.901 979.081 237.304C978.096 236.703 977.32 235.843 976.752 234.726C976.188 233.608 975.907 232.276 975.907 230.727C975.907 229.174 976.191 227.841 976.759 226.729C977.327 225.611 978.104 224.754 979.088 224.158C980.073 223.556 981.193 223.256 982.448 223.256C983.22 223.256 983.939 223.367 984.607 223.589C985.279 223.807 985.883 224.129 986.418 224.555C986.953 224.977 987.396 225.493 987.746 226.104C988.096 226.71 988.333 227.403 988.456 228.185ZM994.087 238.241C993.395 238.241 992.77 238.114 992.212 237.858C991.653 237.598 991.21 237.221 990.884 236.729C990.562 236.236 990.401 235.633 990.401 234.918C990.401 234.302 990.519 233.795 990.756 233.398C990.992 233 991.312 232.685 991.714 232.453C992.117 232.221 992.567 232.046 993.064 231.928C993.561 231.809 994.068 231.719 994.584 231.658C995.237 231.582 995.768 231.52 996.175 231.473C996.582 231.421 996.878 231.338 997.062 231.224C997.247 231.111 997.339 230.926 997.339 230.67V230.621C997.339 230 997.164 229.52 996.814 229.179C996.468 228.838 995.952 228.668 995.266 228.668C994.551 228.668 993.987 228.826 993.575 229.143C993.168 229.456 992.886 229.804 992.73 230.188L990.734 229.733C990.971 229.07 991.317 228.535 991.771 228.128C992.231 227.716 992.759 227.418 993.355 227.233C993.952 227.044 994.579 226.949 995.237 226.949C995.673 226.949 996.134 227.001 996.622 227.105C997.115 227.205 997.574 227.389 998 227.659C998.431 227.929 998.784 228.315 999.058 228.817C999.333 229.314 999.47 229.96 999.47 230.756V238H997.396V236.509H997.311C997.174 236.783 996.968 237.053 996.693 237.318C996.419 237.583 996.066 237.804 995.635 237.979C995.204 238.154 994.688 238.241 994.087 238.241ZM994.548 236.537C995.135 236.537 995.637 236.421 996.054 236.189C996.475 235.957 996.795 235.654 997.013 235.28C997.235 234.901 997.347 234.496 997.347 234.065V232.659C997.271 232.735 997.124 232.806 996.906 232.872C996.693 232.934 996.449 232.988 996.175 233.036C995.9 233.078 995.633 233.118 995.372 233.156C995.112 233.189 994.894 233.218 994.719 233.241C994.307 233.294 993.93 233.381 993.589 233.504C993.253 233.627 992.983 233.805 992.78 234.037C992.581 234.264 992.482 234.567 992.482 234.946C992.482 235.472 992.676 235.869 993.064 236.139C993.452 236.404 993.947 236.537 994.548 236.537ZM1002.3 242.091V227.091H1004.37V228.859H1004.55C1004.67 228.632 1004.85 228.369 1005.08 228.071C1005.31 227.773 1005.64 227.512 1006.05 227.29C1006.46 227.062 1007.01 226.949 1007.68 226.949C1008.56 226.949 1009.35 227.171 1010.04 227.616C1010.73 228.062 1011.27 228.703 1011.67 229.541C1012.06 230.379 1012.26 231.388 1012.26 232.567C1012.26 233.746 1012.07 234.757 1011.67 235.599C1011.28 236.437 1010.74 237.084 1010.05 237.538C1009.37 237.988 1008.58 238.213 1007.7 238.213C1007.04 238.213 1006.5 238.102 1006.08 237.879C1005.66 237.657 1005.33 237.396 1005.1 237.098C1004.86 236.8 1004.68 236.535 1004.55 236.303H1004.42V242.091H1002.3ZM1004.38 232.545C1004.38 233.312 1004.49 233.985 1004.71 234.562C1004.94 235.14 1005.26 235.592 1005.68 235.919C1006.1 236.241 1006.62 236.402 1007.23 236.402C1007.86 236.402 1008.39 236.234 1008.82 235.898C1009.24 235.557 1009.57 235.095 1009.78 234.513C1010.01 233.93 1010.12 233.275 1010.12 232.545C1010.12 231.826 1010.01 231.179 1009.79 230.607C1009.58 230.034 1009.26 229.581 1008.83 229.25C1008.4 228.919 1007.87 228.753 1007.23 228.753C1006.61 228.753 1006.09 228.911 1005.67 229.229C1005.24 229.546 1004.92 229.989 1004.71 230.557C1004.49 231.125 1004.38 231.788 1004.38 232.545ZM1020.11 238V223.455H1022.3V229.776H1029.55V223.455H1031.75V238H1029.55V231.658H1022.3V238H1020.11ZM1039.37 238.22C1038.35 238.22 1037.46 237.986 1036.7 237.517C1035.93 237.048 1035.34 236.393 1034.92 235.55C1034.5 234.707 1034.29 233.722 1034.29 232.595C1034.29 231.464 1034.5 230.474 1034.92 229.626C1035.34 228.779 1035.93 228.121 1036.7 227.652C1037.46 227.183 1038.35 226.949 1039.37 226.949C1040.4 226.949 1041.29 227.183 1042.05 227.652C1042.81 228.121 1043.41 228.779 1043.83 229.626C1044.25 230.474 1044.46 231.464 1044.46 232.595C1044.46 233.722 1044.25 234.707 1043.83 235.55C1043.41 236.393 1042.81 237.048 1042.05 237.517C1041.29 237.986 1040.4 238.22 1039.37 238.22ZM1039.38 236.438C1040.04 236.438 1040.59 236.262 1041.03 235.912C1041.46 235.562 1041.79 235.095 1042 234.513C1042.21 233.93 1042.31 233.289 1042.31 232.588C1042.31 231.892 1042.21 231.253 1042 230.67C1041.79 230.083 1041.46 229.612 1041.03 229.257C1040.59 228.902 1040.04 228.724 1039.38 228.724C1038.71 228.724 1038.16 228.902 1037.72 229.257C1037.28 229.612 1036.96 230.083 1036.75 230.67C1036.54 231.253 1036.43 231.892 1036.43 232.588C1036.43 233.289 1036.54 233.93 1036.75 234.513C1036.96 235.095 1037.28 235.562 1037.72 235.912C1038.16 236.262 1038.71 236.438 1039.38 236.438ZM1048.95 223.455V238H1046.83V223.455H1048.95ZM1055.89 238.213C1055.01 238.213 1054.23 237.988 1053.54 237.538C1052.85 237.084 1052.31 236.437 1051.92 235.599C1051.53 234.757 1051.33 233.746 1051.33 232.567C1051.33 231.388 1051.53 230.379 1051.92 229.541C1052.32 228.703 1052.87 228.062 1053.56 227.616C1054.25 227.171 1055.03 226.949 1055.91 226.949C1056.59 226.949 1057.13 227.062 1057.54 227.29C1057.96 227.512 1058.28 227.773 1058.51 228.071C1058.74 228.369 1058.92 228.632 1059.05 228.859H1059.18V223.455H1061.3V238H1059.23V236.303H1059.05C1058.92 236.535 1058.74 236.8 1058.49 237.098C1058.26 237.396 1057.93 237.657 1057.51 237.879C1057.1 238.102 1056.56 238.213 1055.89 238.213ZM1056.36 236.402C1056.97 236.402 1057.49 236.241 1057.91 235.919C1058.34 235.592 1058.66 235.14 1058.88 234.562C1059.1 233.985 1059.21 233.312 1059.21 232.545C1059.21 231.788 1059.1 231.125 1058.88 230.557C1058.67 229.989 1058.35 229.546 1057.93 229.229C1057.5 228.911 1056.98 228.753 1056.36 228.753C1055.72 228.753 1055.19 228.919 1054.76 229.25C1054.34 229.581 1054.02 230.034 1053.8 230.607C1053.59 231.179 1053.48 231.826 1053.48 232.545C1053.48 233.275 1053.59 233.93 1053.81 234.513C1054.02 235.095 1054.35 235.557 1054.77 235.898C1055.2 236.234 1055.73 236.402 1056.36 236.402ZM1069.03 238.22C1067.96 238.22 1067.03 237.991 1066.25 237.531C1065.48 237.067 1064.89 236.416 1064.46 235.578C1064.05 234.735 1063.84 233.748 1063.84 232.616C1063.84 231.499 1064.05 230.514 1064.46 229.662C1064.89 228.81 1065.47 228.144 1066.23 227.666C1066.98 227.188 1067.87 226.949 1068.88 226.949C1069.5 226.949 1070.09 227.051 1070.67 227.254C1071.25 227.458 1071.77 227.777 1072.23 228.213C1072.69 228.649 1073.05 229.214 1073.31 229.911C1073.58 230.602 1073.71 231.442 1073.71 232.432V233.185H1065.04V231.594H1071.63C1071.63 231.035 1071.52 230.54 1071.29 230.109C1071.06 229.674 1070.74 229.33 1070.33 229.08C1069.92 228.829 1069.45 228.703 1068.9 228.703C1068.3 228.703 1067.78 228.85 1067.33 229.143C1066.89 229.432 1066.55 229.811 1066.31 230.28C1066.07 230.744 1065.96 231.248 1065.96 231.793V233.036C1065.96 233.765 1066.08 234.385 1066.34 234.896C1066.6 235.408 1066.96 235.798 1067.43 236.068C1067.89 236.333 1068.43 236.466 1069.05 236.466C1069.46 236.466 1069.82 236.409 1070.15 236.295C1070.49 236.177 1070.77 236.002 1071.01 235.77C1071.25 235.538 1071.44 235.251 1071.57 234.911L1073.58 235.273C1073.42 235.865 1073.13 236.383 1072.71 236.828C1072.3 237.268 1071.78 237.612 1071.16 237.858C1070.53 238.099 1069.83 238.22 1069.03 238.22ZM1076.07 238V227.091H1078.12V228.824H1078.23C1078.43 228.237 1078.78 227.775 1079.29 227.439C1079.79 227.098 1080.37 226.928 1081 226.928C1081.14 226.928 1081.29 226.932 1081.47 226.942C1081.66 226.951 1081.8 226.963 1081.91 226.977V229.009C1081.82 228.985 1081.67 228.959 1081.45 228.93C1081.23 228.897 1081.02 228.881 1080.8 228.881C1080.3 228.881 1079.85 228.987 1079.46 229.2C1079.07 229.409 1078.76 229.7 1078.53 230.074C1078.31 230.443 1078.19 230.865 1078.19 231.338V238H1076.07ZM1091.92 229.754L1089.99 230.095C1089.91 229.849 1089.79 229.615 1089.61 229.392C1089.44 229.17 1089.21 228.987 1088.91 228.845C1088.62 228.703 1088.25 228.632 1087.81 228.632C1087.21 228.632 1086.71 228.767 1086.31 229.037C1085.91 229.302 1085.7 229.645 1085.7 230.067C1085.7 230.431 1085.84 230.725 1086.11 230.947C1086.38 231.17 1086.81 231.352 1087.42 231.494L1089.15 231.892C1090.15 232.124 1090.9 232.482 1091.39 232.964C1091.89 233.447 1092.13 234.075 1092.13 234.847C1092.13 235.5 1091.94 236.082 1091.56 236.594C1091.19 237.1 1090.67 237.498 1089.99 237.787C1089.33 238.076 1088.55 238.22 1087.67 238.22C1086.45 238.22 1085.45 237.96 1084.68 237.439C1083.91 236.913 1083.44 236.168 1083.26 235.202L1085.31 234.889C1085.44 235.424 1085.7 235.829 1086.1 236.104C1086.5 236.374 1087.02 236.509 1087.66 236.509C1088.35 236.509 1088.91 236.364 1089.33 236.075C1089.74 235.782 1089.95 235.424 1089.95 235.003C1089.95 234.662 1089.82 234.375 1089.57 234.143C1089.32 233.911 1088.93 233.736 1088.41 233.618L1086.56 233.213C1085.55 232.981 1084.79 232.612 1084.31 232.105C1083.82 231.598 1083.58 230.957 1083.58 230.18C1083.58 229.536 1083.76 228.973 1084.12 228.49C1084.48 228.007 1084.98 227.631 1085.61 227.361C1086.25 227.086 1086.97 226.949 1087.79 226.949C1088.97 226.949 1089.9 227.205 1090.58 227.716C1091.25 228.223 1091.7 228.902 1091.92 229.754Z" fill="#3182CE"/>
<path d="M911.679 273.185H909.463C909.378 272.711 909.219 272.295 908.987 271.935C908.755 271.575 908.471 271.269 908.135 271.018C907.799 270.768 907.422 270.578 907.006 270.45C906.594 270.322 906.156 270.259 905.692 270.259C904.854 270.259 904.103 270.469 903.44 270.891C902.782 271.312 902.261 271.93 901.878 272.744C901.499 273.559 901.31 274.553 901.31 275.727C901.31 276.911 901.499 277.91 901.878 278.724C902.261 279.539 902.785 280.154 903.447 280.571C904.11 280.988 904.856 281.196 905.685 281.196C906.144 281.196 906.58 281.134 906.991 281.011C907.408 280.884 907.785 280.696 908.121 280.45C908.457 280.204 908.741 279.903 908.973 279.548C909.21 279.188 909.373 278.777 909.463 278.312L911.679 278.32C911.561 279.035 911.331 279.693 910.99 280.294C910.654 280.891 910.221 281.407 909.69 281.842C909.165 282.273 908.563 282.607 907.886 282.844C907.209 283.08 906.471 283.199 905.67 283.199C904.411 283.199 903.289 282.901 902.304 282.304C901.319 281.703 900.543 280.843 899.974 279.726C899.411 278.608 899.129 277.276 899.129 275.727C899.129 274.174 899.413 272.841 899.982 271.729C900.55 270.611 901.326 269.754 902.311 269.158C903.296 268.556 904.416 268.256 905.67 268.256C906.442 268.256 907.162 268.367 907.83 268.589C908.502 268.807 909.106 269.129 909.641 269.555C910.176 269.977 910.618 270.493 910.969 271.104C911.319 271.71 911.556 272.403 911.679 273.185ZM914.135 283V272.091H916.187V273.824H916.301C916.5 273.237 916.85 272.775 917.352 272.439C917.859 272.098 918.431 271.928 919.071 271.928C919.203 271.928 919.359 271.932 919.539 271.942C919.724 271.951 919.868 271.963 919.973 271.977V274.009C919.887 273.985 919.736 273.959 919.518 273.93C919.3 273.897 919.083 273.881 918.865 273.881C918.363 273.881 917.915 273.987 917.522 274.2C917.134 274.409 916.826 274.7 916.599 275.074C916.372 275.443 916.258 275.865 916.258 276.338V283H914.135ZM921.81 283V272.091H923.934V283H921.81ZM922.883 270.408C922.513 270.408 922.196 270.285 921.931 270.038C921.671 269.787 921.54 269.489 921.54 269.143C921.54 268.793 921.671 268.495 921.931 268.249C922.196 267.998 922.513 267.872 922.883 267.872C923.252 267.872 923.567 267.998 923.827 268.249C924.093 268.495 924.225 268.793 924.225 269.143C924.225 269.489 924.093 269.787 923.827 270.038C923.567 270.285 923.252 270.408 922.883 270.408ZM931.883 272.091V273.795H925.924V272.091H931.883ZM927.522 269.477H929.646V279.797C929.646 280.209 929.708 280.519 929.831 280.727C929.954 280.931 930.112 281.071 930.306 281.146C930.505 281.217 930.721 281.253 930.953 281.253C931.123 281.253 931.272 281.241 931.4 281.217C931.528 281.194 931.627 281.175 931.699 281.161L932.082 282.915C931.959 282.962 931.784 283.009 931.556 283.057C931.329 283.109 931.045 283.137 930.704 283.142C930.145 283.152 929.625 283.052 929.142 282.844C928.659 282.635 928.268 282.313 927.97 281.878C927.672 281.442 927.522 280.895 927.522 280.237V269.477ZM939.325 272.091V273.795H933.366V272.091H939.325ZM934.964 269.477H937.087V279.797C937.087 280.209 937.149 280.519 937.272 280.727C937.395 280.931 937.554 281.071 937.748 281.146C937.947 281.217 938.162 281.253 938.394 281.253C938.565 281.253 938.714 281.241 938.842 281.217C938.969 281.194 939.069 281.175 939.14 281.161L939.523 282.915C939.4 282.962 939.225 283.009 938.998 283.057C938.771 283.109 938.487 283.137 938.146 283.142C937.587 283.152 937.066 283.052 936.583 282.844C936.1 282.635 935.71 282.313 935.411 281.878C935.113 281.442 934.964 280.895 934.964 280.237V269.477ZM946.258 283.22C945.183 283.22 944.258 282.991 943.481 282.531C942.709 282.067 942.113 281.416 941.691 280.578C941.275 279.735 941.066 278.748 941.066 277.616C941.066 276.499 941.275 275.514 941.691 274.662C942.113 273.81 942.7 273.144 943.453 272.666C944.21 272.188 945.096 271.949 946.109 271.949C946.725 271.949 947.321 272.051 947.899 272.254C948.476 272.458 948.995 272.777 949.454 273.213C949.913 273.649 950.276 274.214 950.541 274.911C950.806 275.602 950.939 276.442 950.939 277.432V278.185H942.267V276.594H948.858C948.858 276.035 948.744 275.54 948.517 275.109C948.289 274.674 947.97 274.33 947.558 274.08C947.151 273.829 946.672 273.703 946.123 273.703C945.527 273.703 945.006 273.85 944.561 274.143C944.12 274.432 943.779 274.811 943.538 275.28C943.301 275.744 943.183 276.248 943.183 276.793V278.036C943.183 278.765 943.311 279.385 943.566 279.896C943.827 280.408 944.189 280.798 944.653 281.068C945.117 281.333 945.659 281.466 946.279 281.466C946.682 281.466 947.049 281.409 947.38 281.295C947.712 281.177 947.998 281.002 948.24 280.77C948.481 280.538 948.666 280.251 948.794 279.911L950.804 280.273C950.643 280.865 950.354 281.383 949.937 281.828C949.525 282.268 949.007 282.612 948.382 282.858C947.761 283.099 947.054 283.22 946.258 283.22ZM953.295 283V272.091H955.347V273.824H955.461C955.66 273.237 956.01 272.775 956.512 272.439C957.019 272.098 957.592 271.928 958.231 271.928C958.363 271.928 958.52 271.932 958.7 271.942C958.884 271.951 959.029 271.963 959.133 271.977V274.009C959.048 273.985 958.896 273.959 958.678 273.93C958.46 273.897 958.243 273.881 958.025 273.881C957.523 273.881 957.076 273.987 956.683 274.2C956.294 274.409 955.987 274.7 955.759 275.074C955.532 275.443 955.418 275.865 955.418 276.338V283H953.295ZM960.743 283V281.544L966.652 274.037V273.938H960.935V272.091H969.301V273.639L963.62 281.054V281.153H969.5V283H960.743ZM977.545 267.773L972.858 285.188H970.962L975.649 267.773H977.545ZM991.26 268.455V283H989.243L981.849 272.332H981.714V283H979.52V268.455H981.551L988.952 279.136H989.087V268.455H991.26ZM994.461 283V268.455H1003.48V270.344H996.656V274.776H1002.83V276.658H996.656V283H994.461ZM1005.46 270.344V268.455H1016.72V270.344H1012.18V283H1009.99V270.344H1005.46ZM1022.06 283L1018.02 268.455H1020.33L1023.16 279.719H1023.3L1026.25 268.455H1028.53L1031.48 279.726H1031.62L1034.44 268.455H1036.76L1032.72 283H1030.51L1027.45 272.105H1027.33L1024.27 283H1022.06ZM1042.11 283.22C1041.09 283.22 1040.19 282.986 1039.43 282.517C1038.67 282.048 1038.08 281.393 1037.66 280.55C1037.23 279.707 1037.02 278.722 1037.02 277.595C1037.02 276.464 1037.23 275.474 1037.66 274.626C1038.08 273.779 1038.67 273.121 1039.43 272.652C1040.19 272.183 1041.09 271.949 1042.11 271.949C1043.13 271.949 1044.02 272.183 1044.79 272.652C1045.55 273.121 1046.14 273.779 1046.56 274.626C1046.98 275.474 1047.19 276.464 1047.19 277.595C1047.19 278.722 1046.98 279.707 1046.56 280.55C1046.14 281.393 1045.55 282.048 1044.79 282.517C1044.02 282.986 1043.13 283.22 1042.11 283.22ZM1042.12 281.438C1042.78 281.438 1043.33 281.262 1043.76 280.912C1044.2 280.562 1044.52 280.095 1044.73 279.513C1044.94 278.93 1045.05 278.289 1045.05 277.588C1045.05 276.892 1044.94 276.253 1044.73 275.67C1044.52 275.083 1044.2 274.612 1043.76 274.257C1043.33 273.902 1042.78 273.724 1042.12 273.724C1041.45 273.724 1040.89 273.902 1040.45 274.257C1040.02 274.612 1039.69 275.083 1039.48 275.67C1039.27 276.253 1039.17 276.892 1039.17 277.588C1039.17 278.289 1039.27 278.93 1039.48 279.513C1039.69 280.095 1040.02 280.562 1040.45 280.912C1040.89 281.262 1041.45 281.438 1042.12 281.438ZM1049.56 283V272.091H1051.62V273.824H1051.73C1051.93 273.237 1052.28 272.775 1052.78 272.439C1053.29 272.098 1053.86 271.928 1054.5 271.928C1054.63 271.928 1054.79 271.932 1054.97 271.942C1055.15 271.951 1055.3 271.963 1055.4 271.977V274.009C1055.32 273.985 1055.17 273.959 1054.95 273.93C1054.73 273.897 1054.51 273.881 1054.29 273.881C1053.79 273.881 1053.35 273.987 1052.95 274.2C1052.56 274.409 1052.26 274.7 1052.03 275.074C1051.8 275.443 1051.69 275.865 1051.69 276.338V283H1049.56ZM1059.36 268.455V283H1057.24V268.455H1059.36ZM1066.3 283.213C1065.42 283.213 1064.64 282.988 1063.95 282.538C1063.26 282.084 1062.72 281.437 1062.33 280.599C1061.94 279.757 1061.74 278.746 1061.74 277.567C1061.74 276.388 1061.94 275.379 1062.33 274.541C1062.73 273.703 1063.28 273.062 1063.97 272.616C1064.66 272.171 1065.44 271.949 1066.32 271.949C1067 271.949 1067.54 272.062 1067.95 272.29C1068.37 272.512 1068.69 272.773 1068.92 273.071C1069.15 273.369 1069.33 273.632 1069.46 273.859H1069.59V268.455H1071.71V283H1069.64V281.303H1069.46C1069.33 281.535 1069.15 281.8 1068.9 282.098C1068.67 282.396 1068.34 282.657 1067.92 282.879C1067.51 283.102 1066.97 283.213 1066.3 283.213ZM1066.77 281.402C1067.38 281.402 1067.9 281.241 1068.32 280.919C1068.75 280.592 1069.07 280.14 1069.29 279.562C1069.51 278.985 1069.62 278.312 1069.62 277.545C1069.62 276.788 1069.51 276.125 1069.29 275.557C1069.08 274.989 1068.76 274.546 1068.34 274.229C1067.91 273.911 1067.39 273.753 1066.77 273.753C1066.13 273.753 1065.6 273.919 1065.18 274.25C1064.75 274.581 1064.43 275.034 1064.21 275.607C1064 276.179 1063.89 276.826 1063.89 277.545C1063.89 278.275 1064 278.93 1064.22 279.513C1064.43 280.095 1064.76 280.557 1065.18 280.898C1065.61 281.234 1066.14 281.402 1066.77 281.402ZM898.881 294.344V292.455H910.138V294.344H905.599V307H903.412V294.344H898.881ZM915.468 307.22C914.445 307.22 913.553 306.986 912.79 306.517C912.028 306.048 911.436 305.393 911.015 304.55C910.594 303.707 910.383 302.722 910.383 301.595C910.383 300.464 910.594 299.474 911.015 298.626C911.436 297.779 912.028 297.121 912.79 296.652C913.553 296.183 914.445 295.949 915.468 295.949C916.491 295.949 917.383 296.183 918.146 296.652C918.908 297.121 919.5 297.779 919.921 298.626C920.343 299.474 920.553 300.464 920.553 301.595C920.553 302.722 920.343 303.707 919.921 304.55C919.5 305.393 918.908 306.048 918.146 306.517C917.383 306.986 916.491 307.22 915.468 307.22ZM915.475 305.438C916.138 305.438 916.687 305.262 917.123 304.912C917.558 304.562 917.88 304.095 918.089 303.513C918.302 302.93 918.408 302.289 918.408 301.588C918.408 300.892 918.302 300.253 918.089 299.67C917.88 299.083 917.558 298.612 917.123 298.257C916.687 297.902 916.138 297.724 915.475 297.724C914.808 297.724 914.254 297.902 913.813 298.257C913.378 298.612 913.053 299.083 912.84 299.67C912.632 300.253 912.528 300.892 912.528 301.588C912.528 302.289 912.632 302.93 912.84 303.513C913.053 304.095 913.378 304.562 913.813 304.912C914.254 305.262 914.808 305.438 915.475 305.438ZM924.877 303.3L924.863 300.707H925.232L929.578 296.091H932.121L927.164 301.347H926.83L924.877 303.3ZM922.924 307V292.455H925.047V307H922.924ZM929.813 307L925.907 301.815L927.37 300.331L932.419 307H929.813ZM938.309 307.22C937.234 307.22 936.308 306.991 935.532 306.531C934.76 306.067 934.164 305.416 933.742 304.578C933.326 303.735 933.117 302.748 933.117 301.616C933.117 300.499 933.326 299.514 933.742 298.662C934.164 297.81 934.751 297.144 935.504 296.666C936.261 296.188 937.147 295.949 938.16 295.949C938.775 295.949 939.372 296.051 939.95 296.254C940.527 296.458 941.046 296.777 941.505 297.213C941.964 297.649 942.326 298.214 942.592 298.911C942.857 299.602 942.989 300.442 942.989 301.432V302.185H934.317V300.594H940.908C940.908 300.035 940.795 299.54 940.567 299.109C940.34 298.674 940.021 298.33 939.609 298.08C939.201 297.829 938.723 297.703 938.174 297.703C937.577 297.703 937.057 297.85 936.612 298.143C936.171 298.432 935.83 298.811 935.589 299.28C935.352 299.744 935.234 300.248 935.234 300.793V302.036C935.234 302.765 935.362 303.385 935.617 303.896C935.878 304.408 936.24 304.798 936.704 305.068C937.168 305.333 937.71 305.466 938.33 305.466C938.733 305.466 939.1 305.409 939.431 305.295C939.763 305.177 940.049 305.002 940.29 304.77C940.532 304.538 940.717 304.251 940.844 303.911L942.854 304.273C942.693 304.865 942.405 305.383 941.988 305.828C941.576 306.268 941.058 306.612 940.433 306.858C939.812 307.099 939.104 307.22 938.309 307.22ZM947.469 300.523V307H945.346V296.091H947.384V297.866H947.519C947.77 297.289 948.163 296.825 948.698 296.474C949.238 296.124 949.917 295.949 950.736 295.949C951.48 295.949 952.131 296.105 952.689 296.418C953.248 296.725 953.681 297.185 953.989 297.795C954.297 298.406 954.451 299.161 954.451 300.061V307H952.327V300.317C952.327 299.526 952.121 298.908 951.709 298.463C951.297 298.013 950.731 297.788 950.012 297.788C949.519 297.788 949.081 297.895 948.698 298.108C948.319 298.321 948.018 298.634 947.796 299.045C947.578 299.453 947.469 299.945 947.469 300.523ZM962.762 307V292.455H964.957V298.776H972.208V292.455H974.41V307H972.208V300.658H964.957V307H962.762ZM982.031 307.22C981.008 307.22 980.115 306.986 979.353 306.517C978.591 306.048 977.999 305.393 977.577 304.55C977.156 303.707 976.945 302.722 976.945 301.595C976.945 300.464 977.156 299.474 977.577 298.626C977.999 297.779 978.591 297.121 979.353 296.652C980.115 296.183 981.008 295.949 982.031 295.949C983.053 295.949 983.946 296.183 984.708 296.652C985.47 297.121 986.062 297.779 986.484 298.626C986.905 299.474 987.116 300.464 987.116 301.595C987.116 302.722 986.905 303.707 986.484 304.55C986.062 305.393 985.47 306.048 984.708 306.517C983.946 306.986 983.053 307.22 982.031 307.22ZM982.038 305.438C982.701 305.438 983.25 305.262 983.685 304.912C984.121 304.562 984.443 304.095 984.651 303.513C984.864 302.93 984.971 302.289 984.971 301.588C984.971 300.892 984.864 300.253 984.651 299.67C984.443 299.083 984.121 298.612 983.685 298.257C983.25 297.902 982.701 297.724 982.038 297.724C981.37 297.724 980.816 297.902 980.376 298.257C979.94 298.612 979.616 299.083 979.403 299.67C979.194 300.253 979.09 300.892 979.09 301.588C979.09 302.289 979.194 302.93 979.403 303.513C979.616 304.095 979.94 304.562 980.376 304.912C980.816 305.262 981.37 305.438 982.038 305.438ZM991.61 292.455V307H989.486V292.455H991.61ZM998.55 307.213C997.67 307.213 996.884 306.988 996.192 306.538C995.506 306.084 994.966 305.437 994.573 304.599C994.185 303.757 993.991 302.746 993.991 301.567C993.991 300.388 994.187 299.379 994.58 298.541C994.978 297.703 995.522 297.062 996.214 296.616C996.905 296.171 997.689 295.949 998.565 295.949C999.242 295.949 999.786 296.062 1000.2 296.29C1000.61 296.512 1000.94 296.773 1001.16 297.071C1001.4 297.369 1001.58 297.632 1001.7 297.859H1001.83V292.455H1003.96V307H1001.88V305.303H1001.7C1001.58 305.535 1001.39 305.8 1001.15 306.098C1000.91 306.396 1000.59 306.657 1000.17 306.879C999.753 307.102 999.213 307.213 998.55 307.213ZM999.019 305.402C999.63 305.402 1000.15 305.241 1000.57 304.919C1000.99 304.592 1001.32 304.14 1001.53 303.562C1001.76 302.985 1001.87 302.312 1001.87 301.545C1001.87 300.788 1001.76 300.125 1001.54 299.557C1001.32 298.989 1001 298.546 1000.58 298.229C1000.16 297.911 999.639 297.753 999.019 297.753C998.38 297.753 997.847 297.919 997.421 298.25C996.995 298.581 996.673 299.034 996.455 299.607C996.242 300.179 996.136 300.826 996.136 301.545C996.136 302.275 996.245 302.93 996.462 303.513C996.68 304.095 997.002 304.557 997.428 304.898C997.859 305.234 998.389 305.402 999.019 305.402ZM1011.69 307.22C1010.61 307.22 1009.69 306.991 1008.91 306.531C1008.14 306.067 1007.54 305.416 1007.12 304.578C1006.7 303.735 1006.5 302.748 1006.5 301.616C1006.5 300.499 1006.7 299.514 1007.12 298.662C1007.54 297.81 1008.13 297.144 1008.88 296.666C1009.64 296.188 1010.53 295.949 1011.54 295.949C1012.15 295.949 1012.75 296.051 1013.33 296.254C1013.91 296.458 1014.42 296.777 1014.88 297.213C1015.34 297.649 1015.71 298.214 1015.97 298.911C1016.24 299.602 1016.37 300.442 1016.37 301.432V302.185H1007.7V300.594H1014.29C1014.29 300.035 1014.17 299.54 1013.95 299.109C1013.72 298.674 1013.4 298.33 1012.99 298.08C1012.58 297.829 1012.1 297.703 1011.55 297.703C1010.96 297.703 1010.44 297.85 1009.99 298.143C1009.55 298.432 1009.21 298.811 1008.97 299.28C1008.73 299.744 1008.61 300.248 1008.61 300.793V302.036C1008.61 302.765 1008.74 303.385 1009 303.896C1009.26 304.408 1009.62 304.798 1010.08 305.068C1010.55 305.333 1011.09 305.466 1011.71 305.466C1012.11 305.466 1012.48 305.409 1012.81 305.295C1013.14 305.177 1013.43 305.002 1013.67 304.77C1013.91 304.538 1014.1 304.251 1014.22 303.911L1016.23 304.273C1016.07 304.865 1015.78 305.383 1015.37 305.828C1014.95 306.268 1014.44 306.612 1013.81 306.858C1013.19 307.099 1012.48 307.22 1011.69 307.22ZM1018.72 307V296.091H1020.78V297.824H1020.89C1021.09 297.237 1021.44 296.775 1021.94 296.439C1022.45 296.098 1023.02 295.928 1023.66 295.928C1023.79 295.928 1023.95 295.932 1024.13 295.942C1024.31 295.951 1024.46 295.963 1024.56 295.977V298.009C1024.48 297.985 1024.33 297.959 1024.11 297.93C1023.89 297.897 1023.67 297.881 1023.45 297.881C1022.95 297.881 1022.51 297.987 1022.11 298.2C1021.72 298.409 1021.42 298.7 1021.19 299.074C1020.96 299.443 1020.85 299.865 1020.85 300.338V307H1018.72ZM1034.57 298.754L1032.65 299.095C1032.57 298.849 1032.44 298.615 1032.27 298.392C1032.1 298.17 1031.86 297.987 1031.57 297.845C1031.28 297.703 1030.91 297.632 1030.47 297.632C1029.87 297.632 1029.37 297.767 1028.96 298.037C1028.56 298.302 1028.36 298.645 1028.36 299.067C1028.36 299.431 1028.5 299.725 1028.77 299.947C1029.04 300.17 1029.47 300.352 1030.07 300.494L1031.81 300.892C1032.81 301.124 1033.56 301.482 1034.05 301.964C1034.54 302.447 1034.79 303.075 1034.79 303.847C1034.79 304.5 1034.6 305.082 1034.22 305.594C1033.85 306.1 1033.32 306.498 1032.65 306.787C1031.98 307.076 1031.21 307.22 1030.33 307.22C1029.11 307.22 1028.11 306.96 1027.34 306.439C1026.57 305.913 1026.09 305.168 1025.92 304.202L1027.97 303.889C1028.1 304.424 1028.36 304.829 1028.76 305.104C1029.16 305.374 1029.67 305.509 1030.31 305.509C1031.01 305.509 1031.57 305.364 1031.98 305.075C1032.4 304.782 1032.61 304.424 1032.61 304.003C1032.61 303.662 1032.48 303.375 1032.22 303.143C1031.97 302.911 1031.59 302.736 1031.07 302.618L1029.22 302.213C1028.2 301.981 1027.45 301.612 1026.96 301.105C1026.48 300.598 1026.24 299.957 1026.24 299.18C1026.24 298.536 1026.42 297.973 1026.78 297.49C1027.14 297.007 1027.63 296.631 1028.27 296.361C1028.9 296.086 1029.63 295.949 1030.45 295.949C1031.63 295.949 1032.56 296.205 1033.23 296.716C1033.91 297.223 1034.36 297.902 1034.57 298.754Z" fill="#63B3ED"/>
<path d="M899.598 352V337.455H904.783C905.914 337.455 906.852 337.661 907.595 338.072C908.339 338.484 908.895 339.048 909.264 339.763C909.634 340.473 909.818 341.273 909.818 342.163C909.818 343.058 909.631 343.863 909.257 344.578C908.888 345.288 908.329 345.852 907.581 346.268C906.838 346.68 905.902 346.886 904.776 346.886H901.21V345.026H904.577C905.292 345.026 905.872 344.902 906.317 344.656C906.762 344.405 907.089 344.064 907.297 343.634C907.505 343.203 907.609 342.713 907.609 342.163C907.609 341.614 907.505 341.126 907.297 340.7C907.089 340.274 906.759 339.94 906.31 339.699C905.865 339.457 905.277 339.337 904.548 339.337H901.793V352H899.598ZM919.131 347.476V341.091H921.262V352H919.174V350.111H919.06C918.809 350.693 918.407 351.179 917.853 351.567C917.303 351.95 916.619 352.142 915.8 352.142C915.099 352.142 914.479 351.988 913.939 351.68C913.404 351.368 912.983 350.906 912.675 350.295C912.372 349.685 912.221 348.929 912.221 348.03V341.091H914.344V347.774C914.344 348.518 914.55 349.109 914.962 349.55C915.374 349.99 915.909 350.21 916.567 350.21C916.965 350.21 917.36 350.111 917.753 349.912C918.151 349.713 918.48 349.412 918.74 349.01C919.006 348.607 919.136 348.096 919.131 347.476ZM924.286 352V337.455H926.409V342.859H926.537C926.66 342.632 926.838 342.369 927.07 342.071C927.302 341.773 927.624 341.512 928.036 341.29C928.447 341.062 928.992 340.949 929.669 340.949C930.55 340.949 931.336 341.171 932.027 341.616C932.718 342.062 933.26 342.703 933.653 343.541C934.051 344.379 934.25 345.388 934.25 346.567C934.25 347.746 934.054 348.757 933.661 349.599C933.268 350.437 932.728 351.084 932.041 351.538C931.355 351.988 930.571 352.213 929.69 352.213C929.027 352.213 928.485 352.102 928.064 351.879C927.647 351.657 927.321 351.396 927.084 351.098C926.847 350.8 926.665 350.535 926.537 350.303H926.359V352H924.286ZM926.366 346.545C926.366 347.312 926.478 347.985 926.7 348.562C926.923 349.14 927.245 349.592 927.666 349.919C928.088 350.241 928.604 350.402 929.214 350.402C929.849 350.402 930.379 350.234 930.805 349.898C931.232 349.557 931.554 349.095 931.771 348.513C931.994 347.93 932.105 347.275 932.105 346.545C932.105 345.826 931.996 345.179 931.778 344.607C931.565 344.034 931.243 343.581 930.812 343.25C930.386 342.919 929.854 342.753 929.214 342.753C928.599 342.753 928.078 342.911 927.652 343.229C927.231 343.546 926.911 343.989 926.693 344.557C926.475 345.125 926.366 345.788 926.366 346.545ZM938.758 337.455V352H936.635V337.455H938.758ZM941.615 352V341.091H943.739V352H941.615ZM942.688 339.408C942.318 339.408 942.001 339.285 941.736 339.038C941.475 338.787 941.345 338.489 941.345 338.143C941.345 337.793 941.475 337.495 941.736 337.249C942.001 336.998 942.318 336.872 942.688 336.872C943.057 336.872 943.372 336.998 943.632 337.249C943.897 337.495 944.03 337.793 944.03 338.143C944.03 338.489 943.897 338.787 943.632 339.038C943.372 339.285 943.057 339.408 942.688 339.408ZM951.191 352.22C950.135 352.22 949.226 351.981 948.463 351.503C947.706 351.02 947.123 350.355 946.716 349.507C946.309 348.66 946.105 347.689 946.105 346.595C946.105 345.487 946.314 344.509 946.73 343.662C947.147 342.81 947.734 342.144 948.492 341.666C949.249 341.188 950.142 340.949 951.169 340.949C951.998 340.949 952.737 341.103 953.385 341.411C954.034 341.714 954.557 342.14 954.955 342.689C955.357 343.238 955.596 343.88 955.672 344.614H953.605C953.492 344.102 953.231 343.662 952.824 343.293C952.422 342.923 951.882 342.739 951.205 342.739C950.613 342.739 950.095 342.895 949.65 343.207C949.209 343.515 948.866 343.955 948.62 344.528C948.373 345.097 948.25 345.769 948.25 346.545C948.25 347.341 948.371 348.027 948.613 348.605C948.854 349.183 949.195 349.63 949.635 349.947C950.08 350.265 950.604 350.423 951.205 350.423C951.607 350.423 951.972 350.35 952.299 350.203C952.63 350.052 952.907 349.836 953.13 349.557C953.357 349.277 953.516 348.941 953.605 348.548H955.672C955.596 349.254 955.367 349.884 954.983 350.438C954.6 350.991 954.086 351.427 953.442 351.744C952.803 352.062 952.052 352.22 951.191 352.22ZM966.255 352L962.221 337.455H964.529L967.363 348.719H967.498L970.445 337.455H972.732L975.679 348.726H975.814L978.641 337.455H980.956L976.915 352H974.706L971.645 341.105H971.532L968.471 352H966.255ZM984.911 345.523V352H982.787V337.455H984.882V342.866H985.017C985.273 342.279 985.663 341.813 986.189 341.467C986.714 341.122 987.401 340.949 988.249 340.949C988.997 340.949 989.65 341.103 990.209 341.411C990.772 341.718 991.208 342.178 991.516 342.788C991.828 343.394 991.984 344.152 991.984 345.061V352H989.861V345.317C989.861 344.517 989.655 343.896 989.243 343.456C988.831 343.011 988.258 342.788 987.524 342.788C987.022 342.788 986.572 342.895 986.175 343.108C985.782 343.321 985.472 343.634 985.244 344.045C985.022 344.453 984.911 344.945 984.911 345.523ZM994.818 352V341.091H996.942V352H994.818ZM995.891 339.408C995.521 339.408 995.204 339.285 994.939 339.038C994.679 338.787 994.548 338.489 994.548 338.143C994.548 337.793 994.679 337.495 994.939 337.249C995.204 336.998 995.521 336.872 995.891 336.872C996.26 336.872 996.575 336.998 996.835 337.249C997.1 337.495 997.233 337.793 997.233 338.143C997.233 338.489 997.1 338.787 996.835 339.038C996.575 339.285 996.26 339.408 995.891 339.408ZM1004.89 341.091V342.795H998.932V341.091H1004.89ZM1000.53 338.477H1002.65V348.797C1002.65 349.209 1002.72 349.519 1002.84 349.727C1002.96 349.931 1003.12 350.071 1003.31 350.146C1003.51 350.217 1003.73 350.253 1003.96 350.253C1004.13 350.253 1004.28 350.241 1004.41 350.217C1004.54 350.194 1004.64 350.175 1004.71 350.161L1005.09 351.915C1004.97 351.962 1004.79 352.009 1004.56 352.057C1004.34 352.109 1004.05 352.137 1003.71 352.142C1003.15 352.152 1002.63 352.052 1002.15 351.844C1001.67 351.635 1001.28 351.313 1000.98 350.878C1000.68 350.442 1000.53 349.895 1000.53 349.237V338.477ZM1011.82 352.22C1010.75 352.22 1009.82 351.991 1009.05 351.531C1008.28 351.067 1007.68 350.416 1007.26 349.578C1006.84 348.735 1006.63 347.748 1006.63 346.616C1006.63 345.499 1006.84 344.514 1007.26 343.662C1007.68 342.81 1008.27 342.144 1009.02 341.666C1009.78 341.188 1010.66 340.949 1011.68 340.949C1012.29 340.949 1012.89 341.051 1013.47 341.254C1014.04 341.458 1014.56 341.777 1015.02 342.213C1015.48 342.649 1015.84 343.214 1016.11 343.911C1016.37 344.602 1016.5 345.442 1016.5 346.432V347.185H1007.83V345.594H1014.42C1014.42 345.035 1014.31 344.54 1014.08 344.109C1013.86 343.674 1013.54 343.33 1013.12 343.08C1012.72 342.829 1012.24 342.703 1011.69 342.703C1011.09 342.703 1010.57 342.85 1010.13 343.143C1009.69 343.432 1009.35 343.811 1009.1 344.28C1008.87 344.744 1008.75 345.248 1008.75 345.793V347.036C1008.75 347.765 1008.88 348.385 1009.13 348.896C1009.39 349.408 1009.76 349.798 1010.22 350.068C1010.68 350.333 1011.23 350.466 1011.85 350.466C1012.25 350.466 1012.62 350.409 1012.95 350.295C1013.28 350.177 1013.56 350.002 1013.81 349.77C1014.05 349.538 1014.23 349.251 1014.36 348.911L1016.37 349.273C1016.21 349.865 1015.92 350.383 1015.5 350.828C1015.09 351.268 1014.57 351.612 1013.95 351.858C1013.33 352.099 1012.62 352.22 1011.82 352.22ZM1020.98 337.455V352H1018.86V337.455H1020.98ZM1023.84 352V341.091H1025.97V352H1023.84ZM1024.91 339.408C1024.54 339.408 1024.23 339.285 1023.96 339.038C1023.7 338.787 1023.57 338.489 1023.57 338.143C1023.57 337.793 1023.7 337.495 1023.96 337.249C1024.23 336.998 1024.54 336.872 1024.91 336.872C1025.28 336.872 1025.6 336.998 1025.86 337.249C1026.12 337.495 1026.26 337.793 1026.26 338.143C1026.26 338.489 1026.12 338.787 1025.86 339.038C1025.6 339.285 1025.28 339.408 1024.91 339.408ZM1037 343.754L1035.07 344.095C1034.99 343.849 1034.86 343.615 1034.69 343.392C1034.52 343.17 1034.29 342.987 1033.99 342.845C1033.7 342.703 1033.33 342.632 1032.89 342.632C1032.29 342.632 1031.79 342.767 1031.39 343.037C1030.98 343.302 1030.78 343.645 1030.78 344.067C1030.78 344.431 1030.92 344.725 1031.19 344.947C1031.46 345.17 1031.89 345.352 1032.49 345.494L1034.23 345.892C1035.23 346.124 1035.98 346.482 1036.47 346.964C1036.96 347.447 1037.21 348.075 1037.21 348.847C1037.21 349.5 1037.02 350.082 1036.64 350.594C1036.27 351.1 1035.74 351.498 1035.07 351.787C1034.4 352.076 1033.63 352.22 1032.75 352.22C1031.53 352.22 1030.53 351.96 1029.76 351.439C1028.99 350.913 1028.51 350.168 1028.34 349.202L1030.39 348.889C1030.52 349.424 1030.78 349.829 1031.18 350.104C1031.58 350.374 1032.1 350.509 1032.74 350.509C1033.43 350.509 1033.99 350.364 1034.4 350.075C1034.82 349.782 1035.03 349.424 1035.03 349.003C1035.03 348.662 1034.9 348.375 1034.65 348.143C1034.4 347.911 1034.01 347.736 1033.49 347.618L1031.64 347.213C1030.62 346.981 1029.87 346.612 1029.38 346.105C1028.9 345.598 1028.66 344.957 1028.66 344.18C1028.66 343.536 1028.84 342.973 1029.2 342.49C1029.56 342.007 1030.06 341.631 1030.69 341.361C1031.32 341.086 1032.05 340.949 1032.87 340.949C1034.05 340.949 1034.98 341.205 1035.65 341.716C1036.33 342.223 1036.78 342.902 1037 343.754ZM1044.64 341.091V342.795H1038.68V341.091H1044.64ZM1040.28 338.477H1042.4V348.797C1042.4 349.209 1042.46 349.519 1042.58 349.727C1042.71 349.931 1042.87 350.071 1043.06 350.146C1043.26 350.217 1043.47 350.253 1043.71 350.253C1043.88 350.253 1044.03 350.241 1044.15 350.217C1044.28 350.194 1044.38 350.175 1044.45 350.161L1044.84 351.915C1044.71 351.962 1044.54 352.009 1044.31 352.057C1044.08 352.109 1043.8 352.137 1043.46 352.142C1042.9 352.152 1042.38 352.052 1041.9 351.844C1041.41 351.635 1041.02 351.313 1040.72 350.878C1040.43 350.442 1040.28 349.895 1040.28 349.237V338.477Z" fill="#BEE3F8"/>
<path d="M854.538 198L850.376 183.455H853.736L856.143 193.561H856.264L858.92 183.455H861.797L864.446 193.582H864.574L866.982 183.455H870.341L866.179 198H863.182L860.412 188.49H860.298L857.536 198H854.538ZM874.956 191.693V198H871.93V183.455H874.87V189.016H874.998C875.244 188.372 875.642 187.867 876.191 187.503C876.741 187.134 877.43 186.949 878.258 186.949C879.016 186.949 879.676 187.115 880.24 187.446C880.808 187.773 881.248 188.244 881.561 188.859C881.878 189.47 882.034 190.202 882.029 191.054V198H879.004V191.594C879.009 190.921 878.838 190.398 878.493 190.024C878.152 189.65 877.673 189.463 877.058 189.463C876.646 189.463 876.281 189.551 875.964 189.726C875.652 189.901 875.405 190.157 875.225 190.493C875.05 190.824 874.96 191.224 874.956 191.693ZM884.411 198V187.091H887.436V198H884.411ZM885.93 185.685C885.481 185.685 885.095 185.536 884.773 185.237C884.455 184.934 884.297 184.572 884.297 184.151C884.297 183.734 884.455 183.376 884.773 183.078C885.095 182.775 885.481 182.624 885.93 182.624C886.38 182.624 886.764 182.775 887.081 183.078C887.403 183.376 887.564 183.734 887.564 184.151C887.564 184.572 887.403 184.934 887.081 185.237C886.764 185.536 886.38 185.685 885.93 185.685ZM895.662 187.091V189.364H889.093V187.091H895.662ZM890.584 184.477H893.61V194.648C893.61 194.927 893.652 195.145 893.738 195.301C893.823 195.453 893.941 195.559 894.093 195.621C894.249 195.682 894.429 195.713 894.632 195.713C894.775 195.713 894.917 195.701 895.059 195.678C895.201 195.649 895.31 195.628 895.385 195.614L895.861 197.865C895.71 197.912 895.497 197.967 895.222 198.028C894.947 198.095 894.614 198.135 894.221 198.149C893.491 198.178 892.852 198.08 892.303 197.858C891.758 197.635 891.335 197.29 891.032 196.821C890.729 196.352 890.579 195.76 890.584 195.045V184.477ZM902.488 198.213C901.365 198.213 900.4 197.986 899.59 197.531C898.785 197.072 898.165 196.423 897.729 195.585C897.293 194.742 897.076 193.746 897.076 192.595C897.076 191.473 897.293 190.488 897.729 189.641C898.165 188.793 898.778 188.133 899.569 187.659C900.364 187.186 901.297 186.949 902.367 186.949C903.087 186.949 903.757 187.065 904.377 187.297C905.002 187.524 905.546 187.867 906.01 188.327C906.479 188.786 906.844 189.364 907.104 190.06C907.364 190.751 907.495 191.561 907.495 192.489V193.32H898.283V191.445H904.647C904.647 191.009 904.552 190.623 904.363 190.287C904.173 189.951 903.91 189.688 903.574 189.499C903.243 189.304 902.857 189.207 902.417 189.207C901.957 189.207 901.55 189.314 901.195 189.527C900.845 189.735 900.57 190.017 900.371 190.372C900.172 190.723 900.07 191.113 900.066 191.544V193.327C900.066 193.866 900.165 194.333 900.364 194.726C900.568 195.119 900.854 195.422 901.223 195.635C901.593 195.848 902.031 195.955 902.537 195.955C902.873 195.955 903.181 195.907 903.461 195.812C903.74 195.718 903.979 195.576 904.178 195.386C904.377 195.197 904.528 194.965 904.632 194.69L907.431 194.875C907.289 195.547 906.998 196.134 906.557 196.636C906.122 197.134 905.558 197.522 904.867 197.801C904.18 198.076 903.387 198.213 902.488 198.213ZM912.495 183.455V198H909.469V183.455H912.495ZM914.918 198V187.091H917.944V198H914.918ZM916.438 185.685C915.988 185.685 915.603 185.536 915.281 185.237C914.963 184.934 914.805 184.572 914.805 184.151C914.805 183.734 914.963 183.376 915.281 183.078C915.603 182.775 915.988 182.624 916.438 182.624C916.888 182.624 917.272 182.775 917.589 183.078C917.911 183.376 918.072 183.734 918.072 184.151C918.072 184.572 917.911 184.934 917.589 185.237C917.272 185.536 916.888 185.685 916.438 185.685ZM929.444 190.202L926.674 190.372C926.627 190.135 926.525 189.922 926.369 189.733C926.213 189.539 926.007 189.385 925.751 189.271C925.5 189.153 925.199 189.094 924.849 189.094C924.38 189.094 923.985 189.193 923.663 189.392C923.341 189.586 923.18 189.847 923.18 190.173C923.18 190.434 923.284 190.654 923.493 190.834C923.701 191.014 924.058 191.158 924.565 191.267L926.539 191.665C927.6 191.883 928.391 192.233 928.912 192.716C929.432 193.199 929.693 193.833 929.693 194.619C929.693 195.334 929.482 195.962 929.061 196.501C928.644 197.041 928.071 197.463 927.342 197.766C926.618 198.064 925.782 198.213 924.835 198.213C923.391 198.213 922.24 197.912 921.383 197.311C920.531 196.705 920.031 195.881 919.885 194.839L922.86 194.683C922.95 195.124 923.168 195.46 923.514 195.692C923.859 195.919 924.302 196.033 924.842 196.033C925.372 196.033 925.798 195.931 926.12 195.727C926.447 195.519 926.613 195.251 926.618 194.925C926.613 194.65 926.497 194.425 926.27 194.25C926.042 194.07 925.692 193.933 925.218 193.838L923.329 193.462C922.264 193.249 921.471 192.879 920.95 192.354C920.434 191.828 920.176 191.158 920.176 190.344C920.176 189.643 920.365 189.039 920.744 188.533C921.127 188.026 921.665 187.635 922.356 187.361C923.052 187.086 923.867 186.949 924.799 186.949C926.177 186.949 927.261 187.24 928.052 187.822C928.848 188.405 929.312 189.198 929.444 190.202ZM937.401 187.091V189.364H930.831V187.091H937.401ZM932.322 184.477H935.348V194.648C935.348 194.927 935.391 195.145 935.476 195.301C935.561 195.453 935.679 195.559 935.831 195.621C935.987 195.682 936.167 195.713 936.371 195.713C936.513 195.713 936.655 195.701 936.797 195.678C936.939 195.649 937.048 195.628 937.124 195.614L937.599 197.865C937.448 197.912 937.235 197.967 936.96 198.028C936.686 198.095 936.352 198.135 935.959 198.149C935.23 198.178 934.59 198.08 934.041 197.858C933.497 197.635 933.073 197.29 932.77 196.821C932.467 196.352 932.318 195.76 932.322 195.045V184.477ZM948.311 190.202L945.542 190.372C945.494 190.135 945.392 189.922 945.236 189.733C945.08 189.539 944.874 189.385 944.618 189.271C944.367 189.153 944.067 189.094 943.716 189.094C943.248 189.094 942.852 189.193 942.53 189.392C942.208 189.586 942.047 189.847 942.047 190.173C942.047 190.434 942.151 190.654 942.36 190.834C942.568 191.014 942.926 191.158 943.432 191.267L945.407 191.665C946.467 191.883 947.258 192.233 947.779 192.716C948.3 193.199 948.56 193.833 948.56 194.619C948.56 195.334 948.349 195.962 947.928 196.501C947.511 197.041 946.938 197.463 946.209 197.766C945.485 198.064 944.649 198.213 943.702 198.213C942.258 198.213 941.107 197.912 940.25 197.311C939.398 196.705 938.899 195.881 938.752 194.839L941.728 194.683C941.818 195.124 942.035 195.46 942.381 195.692C942.727 195.919 943.169 196.033 943.709 196.033C944.239 196.033 944.666 195.931 944.988 195.727C945.314 195.519 945.48 195.251 945.485 194.925C945.48 194.65 945.364 194.425 945.137 194.25C944.909 194.07 944.559 193.933 944.086 193.838L942.196 193.462C941.131 193.249 940.338 192.879 939.817 192.354C939.301 191.828 939.043 191.158 939.043 190.344C939.043 189.643 939.232 189.039 939.611 188.533C939.995 188.026 940.532 187.635 941.223 187.361C941.919 187.086 942.734 186.949 943.667 186.949C945.044 186.949 946.129 187.24 946.919 187.822C947.715 188.405 948.179 189.198 948.311 190.202ZM957.658 198H954.363L959.384 183.455H963.347L968.361 198H965.066L961.422 186.778H961.309L957.658 198ZM957.452 192.283H965.236V194.683H957.452V192.283ZM973.081 183.455V198H970.055V183.455H973.081ZM978.53 183.455V198H975.504V183.455H978.53ZM985.882 198.213C984.779 198.213 983.825 197.979 983.02 197.51C982.22 197.036 981.602 196.378 981.167 195.536C980.731 194.688 980.513 193.705 980.513 192.588C980.513 191.461 980.731 190.476 981.167 189.634C981.602 188.786 982.22 188.128 983.02 187.659C983.825 187.186 984.779 186.949 985.882 186.949C986.986 186.949 987.937 187.186 988.738 187.659C989.542 188.128 990.163 188.786 990.598 189.634C991.034 190.476 991.252 191.461 991.252 192.588C991.252 193.705 991.034 194.688 990.598 195.536C990.163 196.378 989.542 197.036 988.738 197.51C987.937 197.979 986.986 198.213 985.882 198.213ZM985.897 195.869C986.399 195.869 986.818 195.727 987.154 195.443C987.49 195.154 987.743 194.761 987.914 194.264C988.089 193.767 988.176 193.201 988.176 192.567C988.176 191.932 988.089 191.366 987.914 190.869C987.743 190.372 987.49 189.979 987.154 189.69C986.818 189.402 986.399 189.257 985.897 189.257C985.39 189.257 984.964 189.402 984.618 189.69C984.277 189.979 984.019 190.372 983.844 190.869C983.674 191.366 983.588 191.932 983.588 192.567C983.588 193.201 983.674 193.767 983.844 194.264C984.019 194.761 984.277 195.154 984.618 195.443C984.964 195.727 985.39 195.869 985.897 195.869ZM998.148 198.213C997.031 198.213 996.069 197.976 995.265 197.503C994.464 197.025 993.849 196.362 993.418 195.514C992.992 194.667 992.779 193.691 992.779 192.588C992.779 191.471 992.994 190.491 993.425 189.648C993.861 188.8 994.479 188.14 995.279 187.666C996.079 187.188 997.031 186.949 998.134 186.949C999.086 186.949 999.919 187.122 1000.63 187.467C1001.35 187.813 1001.91 188.298 1002.33 188.923C1002.75 189.548 1002.98 190.282 1003.02 191.125H1000.17C1000.08 190.58 999.872 190.143 999.526 189.811C999.185 189.475 998.738 189.307 998.184 189.307C997.715 189.307 997.305 189.435 996.955 189.69C996.609 189.941 996.339 190.308 996.145 190.791C995.951 191.274 995.854 191.859 995.854 192.545C995.854 193.241 995.949 193.833 996.138 194.321C996.332 194.809 996.605 195.18 996.955 195.436C997.305 195.692 997.715 195.82 998.184 195.82C998.529 195.82 998.839 195.749 999.114 195.607C999.393 195.464 999.623 195.259 999.803 194.989C999.988 194.714 1000.11 194.385 1000.17 194.001H1003.02C1002.97 194.835 1002.75 195.569 1002.34 196.203C1001.94 196.833 1001.38 197.325 1000.67 197.68C999.959 198.036 999.119 198.213 998.148 198.213ZM1008.07 198.206C1007.37 198.206 1006.75 198.085 1006.21 197.844C1005.66 197.598 1005.23 197.235 1004.91 196.757C1004.6 196.274 1004.45 195.673 1004.45 194.953C1004.45 194.347 1004.56 193.838 1004.78 193.426C1005 193.014 1005.31 192.683 1005.69 192.432C1006.07 192.181 1006.51 191.991 1007 191.864C1007.49 191.736 1008 191.646 1008.54 191.594C1009.18 191.527 1009.69 191.466 1010.08 191.409C1010.47 191.348 1010.75 191.258 1010.92 191.139C1011.1 191.021 1011.19 190.846 1011.19 190.614V190.571C1011.19 190.121 1011.04 189.773 1010.76 189.527C1010.48 189.281 1010.08 189.158 1009.57 189.158C1009.02 189.158 1008.59 189.278 1008.27 189.52C1007.95 189.757 1007.73 190.055 1007.63 190.415L1004.83 190.188C1004.97 189.525 1005.25 188.952 1005.67 188.469C1006.08 187.981 1006.62 187.607 1007.28 187.347C1007.94 187.081 1008.71 186.949 1009.58 186.949C1010.19 186.949 1010.77 187.02 1011.32 187.162C1011.88 187.304 1012.37 187.524 1012.81 187.822C1013.24 188.121 1013.58 188.504 1013.84 188.973C1014.09 189.437 1014.21 189.993 1014.21 190.642V198H1011.34V196.487H1011.26C1011.08 196.828 1010.85 197.129 1010.55 197.389C1010.26 197.645 1009.91 197.846 1009.5 197.993C1009.08 198.135 1008.61 198.206 1008.07 198.206ZM1008.93 196.118C1009.38 196.118 1009.77 196.03 1010.11 195.855C1010.45 195.675 1010.72 195.434 1010.92 195.131C1011.11 194.828 1011.21 194.484 1011.21 194.101V192.943C1011.11 193.005 1010.98 193.062 1010.82 193.114C1010.66 193.161 1010.47 193.206 1010.27 193.249C1010.07 193.286 1009.86 193.322 1009.66 193.355C1009.46 193.384 1009.27 193.41 1009.11 193.433C1008.75 193.485 1008.44 193.568 1008.17 193.682C1007.91 193.795 1007.7 193.949 1007.56 194.143C1007.41 194.333 1007.34 194.57 1007.34 194.854C1007.34 195.266 1007.49 195.58 1007.78 195.798C1008.09 196.011 1008.47 196.118 1008.93 196.118ZM1022.36 187.091V189.364H1015.79V187.091H1022.36ZM1017.28 184.477H1020.31V194.648C1020.31 194.927 1020.35 195.145 1020.44 195.301C1020.52 195.453 1020.64 195.559 1020.79 195.621C1020.95 195.682 1021.13 195.713 1021.33 195.713C1021.47 195.713 1021.62 195.701 1021.76 195.678C1021.9 195.649 1022.01 195.628 1022.08 195.614L1022.56 197.865C1022.41 197.912 1022.2 197.967 1021.92 198.028C1021.65 198.095 1021.31 198.135 1020.92 198.149C1020.19 198.178 1019.55 198.08 1019 197.858C1018.46 197.635 1018.03 197.29 1017.73 196.821C1017.43 196.352 1017.28 195.76 1017.28 195.045V184.477ZM1024.33 198V187.091H1027.36V198H1024.33ZM1025.85 185.685C1025.4 185.685 1025.02 185.536 1024.69 185.237C1024.38 184.934 1024.22 184.572 1024.22 184.151C1024.22 183.734 1024.38 183.376 1024.69 183.078C1025.02 182.775 1025.4 182.624 1025.85 182.624C1026.3 182.624 1026.69 182.775 1027 183.078C1027.32 183.376 1027.49 183.734 1027.49 184.151C1027.49 184.572 1027.32 184.934 1027 185.237C1026.69 185.536 1026.3 185.685 1025.85 185.685ZM1034.71 198.213C1033.61 198.213 1032.65 197.979 1031.85 197.51C1031.05 197.036 1030.43 196.378 1029.99 195.536C1029.56 194.688 1029.34 193.705 1029.34 192.588C1029.34 191.461 1029.56 190.476 1029.99 189.634C1030.43 188.786 1031.05 188.128 1031.85 187.659C1032.65 187.186 1033.61 186.949 1034.71 186.949C1035.81 186.949 1036.77 187.186 1037.57 187.659C1038.37 188.128 1038.99 188.786 1039.43 189.634C1039.86 190.476 1040.08 191.461 1040.08 192.588C1040.08 193.705 1039.86 194.688 1039.43 195.536C1038.99 196.378 1038.37 197.036 1037.57 197.51C1036.77 197.979 1035.81 198.213 1034.71 198.213ZM1034.72 195.869C1035.23 195.869 1035.65 195.727 1035.98 195.443C1036.32 195.154 1036.57 194.761 1036.74 194.264C1036.92 193.767 1037 193.201 1037 192.567C1037 191.932 1036.92 191.366 1036.74 190.869C1036.57 190.372 1036.32 189.979 1035.98 189.69C1035.65 189.402 1035.23 189.257 1034.72 189.257C1034.22 189.257 1033.79 189.402 1033.45 189.69C1033.11 189.979 1032.85 190.372 1032.67 190.869C1032.5 191.366 1032.42 191.932 1032.42 192.567C1032.42 193.201 1032.5 193.767 1032.67 194.264C1032.85 194.761 1033.11 195.154 1033.45 195.443C1033.79 195.727 1034.22 195.869 1034.72 195.869ZM1045.07 191.693V198H1042.05V187.091H1044.93V189.016H1045.06C1045.3 188.381 1045.7 187.879 1046.27 187.51C1046.84 187.136 1047.53 186.949 1048.34 186.949C1049.1 186.949 1049.76 187.115 1050.32 187.446C1050.88 187.777 1051.32 188.251 1051.64 188.866C1051.95 189.477 1052.1 190.206 1052.1 191.054V198H1049.08V191.594C1049.08 190.926 1048.91 190.405 1048.57 190.031C1048.22 189.652 1047.75 189.463 1047.14 189.463C1046.73 189.463 1046.37 189.551 1046.06 189.726C1045.75 189.901 1045.51 190.157 1045.34 190.493C1045.17 190.824 1045.08 191.224 1045.07 191.693ZM1063.57 190.202L1060.8 190.372C1060.75 190.135 1060.65 189.922 1060.49 189.733C1060.33 189.539 1060.13 189.385 1059.87 189.271C1059.62 189.153 1059.32 189.094 1058.97 189.094C1058.5 189.094 1058.11 189.193 1057.78 189.392C1057.46 189.586 1057.3 189.847 1057.3 190.173C1057.3 190.434 1057.41 190.654 1057.61 190.834C1057.82 191.014 1058.18 191.158 1058.69 191.267L1060.66 191.665C1061.72 191.883 1062.51 192.233 1063.03 192.716C1063.55 193.199 1063.81 193.833 1063.81 194.619C1063.81 195.334 1063.6 195.962 1063.18 196.501C1062.77 197.041 1062.19 197.463 1061.46 197.766C1060.74 198.064 1059.9 198.213 1058.96 198.213C1057.51 198.213 1056.36 197.912 1055.5 197.311C1054.65 196.705 1054.15 195.881 1054.01 194.839L1056.98 194.683C1057.07 195.124 1057.29 195.46 1057.63 195.692C1057.98 195.919 1058.42 196.033 1058.96 196.033C1059.49 196.033 1059.92 195.931 1060.24 195.727C1060.57 195.519 1060.73 195.251 1060.74 194.925C1060.73 194.65 1060.62 194.425 1060.39 194.25C1060.16 194.07 1059.81 193.933 1059.34 193.838L1057.45 193.462C1056.38 193.249 1055.59 192.879 1055.07 192.354C1054.55 191.828 1054.3 191.158 1054.3 190.344C1054.3 189.643 1054.49 189.039 1054.87 188.533C1055.25 188.026 1055.79 187.635 1056.48 187.361C1057.17 187.086 1057.99 186.949 1058.92 186.949C1060.3 186.949 1061.38 187.24 1062.17 187.822C1062.97 188.405 1063.43 189.198 1063.57 190.202Z" fill="white"/>
<path d="M851.264 81V66.4545H857.003C858.106 66.4545 859.046 66.6652 859.822 67.0866C860.599 67.5033 861.191 68.0833 861.598 68.8267C862.01 69.5653 862.216 70.4176 862.216 71.3835C862.216 72.3494 862.008 73.2017 861.591 73.9403C861.174 74.679 860.571 75.2543 859.78 75.6662C858.994 76.0781 858.042 76.2841 856.925 76.2841H853.267V73.8196H856.428C857.019 73.8196 857.507 73.7178 857.891 73.5142C858.279 73.3059 858.568 73.0194 858.757 72.6548C858.951 72.2855 859.048 71.8617 859.048 71.3835C859.048 70.9006 858.951 70.4792 858.757 70.1193C858.568 69.7547 858.279 69.473 857.891 69.2741C857.502 69.0705 857.01 68.9688 856.413 68.9688H854.339V81H851.264ZM871.152 76.3551V70.0909H874.178V81H871.273V79.0185H871.159C870.913 79.6577 870.504 80.1714 869.931 80.5597C869.363 80.9479 868.669 81.142 867.85 81.142C867.121 81.142 866.479 80.9763 865.925 80.6449C865.371 80.3134 864.938 79.8423 864.625 79.2315C864.318 78.6207 864.161 77.8892 864.157 77.0369V70.0909H867.182V76.4972C867.187 77.1411 867.36 77.6501 867.701 78.0241C868.042 78.3982 868.498 78.5852 869.071 78.5852C869.436 78.5852 869.777 78.5024 870.094 78.3366C870.411 78.1662 870.667 77.9152 870.861 77.5838C871.06 77.2524 871.157 76.8428 871.152 76.3551ZM876.655 81V66.4545H879.68V71.9233H879.773C879.905 71.6297 880.097 71.3314 880.348 71.0284C880.604 70.7206 880.935 70.465 881.342 70.2614C881.754 70.053 882.266 69.9489 882.876 69.9489C883.672 69.9489 884.406 70.1572 885.078 70.5739C885.75 70.9858 886.288 71.6084 886.69 72.4418C887.093 73.2704 887.294 74.3097 887.294 75.5597C887.294 76.7765 887.098 77.804 886.705 78.642C886.316 79.4754 885.786 80.1075 885.114 80.5384C884.446 80.9645 883.698 81.1776 882.869 81.1776C882.282 81.1776 881.783 81.0805 881.371 80.8864C880.964 80.6922 880.63 80.4484 880.369 80.1548C880.109 79.8565 879.91 79.5559 879.773 79.2528H879.638V81H876.655ZM879.616 75.5455C879.616 76.1941 879.706 76.7599 879.886 77.2429C880.066 77.7259 880.327 78.1023 880.668 78.3722C881.009 78.6373 881.423 78.7699 881.911 78.7699C882.403 78.7699 882.82 78.6349 883.161 78.3651C883.501 78.0904 883.759 77.7116 883.935 77.2287C884.115 76.741 884.205 76.1799 884.205 75.5455C884.205 74.9157 884.117 74.3617 883.942 73.8835C883.767 73.4053 883.509 73.0312 883.168 72.7614C882.827 72.4915 882.408 72.3565 881.911 72.3565C881.418 72.3565 881.001 72.4867 880.661 72.7472C880.324 73.0076 880.066 73.3769 879.886 73.8551C879.706 74.3333 879.616 74.8968 879.616 75.5455ZM892.338 66.4545V81H889.313V66.4545H892.338ZM894.762 81V70.0909H897.788V81H894.762ZM896.282 68.6847C895.832 68.6847 895.446 68.5355 895.124 68.2372C894.807 67.9342 894.648 67.572 894.648 67.1506C894.648 66.7339 894.807 66.3764 895.124 66.0781C895.446 65.7751 895.832 65.6236 896.282 65.6236C896.732 65.6236 897.115 65.7751 897.433 66.0781C897.754 66.3764 897.915 66.7339 897.915 67.1506C897.915 67.572 897.754 67.9342 897.433 68.2372C897.115 68.5355 896.732 68.6847 896.282 68.6847ZM905.14 81.2131C904.023 81.2131 903.062 80.9763 902.257 80.5028C901.457 80.0246 900.841 79.3617 900.41 78.5142C899.984 77.6667 899.771 76.6913 899.771 75.5881C899.771 74.4706 899.986 73.4905 900.417 72.6477C900.853 71.8002 901.471 71.1397 902.271 70.6662C903.071 70.188 904.023 69.9489 905.126 69.9489C906.078 69.9489 906.911 70.1217 907.626 70.4673C908.341 70.813 908.907 71.2983 909.324 71.9233C909.74 72.5483 909.97 73.2822 910.012 74.125H907.157C907.077 73.5805 906.864 73.1425 906.518 72.8111C906.177 72.4749 905.73 72.3068 905.176 72.3068C904.707 72.3068 904.297 72.4347 903.947 72.6903C903.601 72.9413 903.332 73.3082 903.137 73.7912C902.943 74.2741 902.846 74.8589 902.846 75.5455C902.846 76.2415 902.941 76.8333 903.13 77.321C903.324 77.8087 903.597 78.1804 903.947 78.4361C904.297 78.6918 904.707 78.8196 905.176 78.8196C905.521 78.8196 905.832 78.7486 906.106 78.6065C906.386 78.4645 906.615 78.2585 906.795 77.9886C906.98 77.714 907.1 77.3849 907.157 77.0014H910.012C909.965 77.8348 909.738 78.5687 909.331 79.2031C908.928 79.8329 908.372 80.3253 907.662 80.6804C906.951 81.0355 906.111 81.2131 905.14 81.2131ZM919.142 81H915.847L920.868 66.4545H924.831L929.846 81H926.55L922.907 69.7784H922.793L919.142 81ZM918.936 75.2827H926.721V77.6832H918.936V75.2827ZM934.565 66.4545V81H931.539V66.4545H934.565ZM940.014 66.4545V81H936.989V66.4545H940.014ZM947.367 81.2131C946.264 81.2131 945.31 80.9787 944.505 80.5099C943.704 80.0365 943.087 79.3783 942.651 78.5355C942.215 77.688 941.998 76.7055 941.998 75.5881C941.998 74.4612 942.215 73.4763 942.651 72.6335C943.087 71.786 943.704 71.1278 944.505 70.6591C945.31 70.1856 946.264 69.9489 947.367 69.9489C948.47 69.9489 949.422 70.1856 950.222 70.6591C951.027 71.1278 951.647 71.786 952.083 72.6335C952.518 73.4763 952.736 74.4612 952.736 75.5881C952.736 76.7055 952.518 77.688 952.083 78.5355C951.647 79.3783 951.027 80.0365 950.222 80.5099C949.422 80.9787 948.47 81.2131 947.367 81.2131ZM947.381 78.8693C947.883 78.8693 948.302 78.7273 948.638 78.4432C948.974 78.1544 949.228 77.7614 949.398 77.2642C949.573 76.767 949.661 76.2012 949.661 75.5668C949.661 74.9323 949.573 74.3665 949.398 73.8693C949.228 73.3722 948.974 72.9792 948.638 72.6903C948.302 72.4015 947.883 72.2571 947.381 72.2571C946.874 72.2571 946.448 72.4015 946.103 72.6903C945.762 72.9792 945.504 73.3722 945.328 73.8693C945.158 74.3665 945.073 74.9323 945.073 75.5668C945.073 76.2012 945.158 76.767 945.328 77.2642C945.504 77.7614 945.762 78.1544 946.103 78.4432C946.448 78.7273 946.874 78.8693 947.381 78.8693ZM959.632 81.2131C958.515 81.2131 957.554 80.9763 956.749 80.5028C955.949 80.0246 955.333 79.3617 954.902 78.5142C954.476 77.6667 954.263 76.6913 954.263 75.5881C954.263 74.4706 954.479 73.4905 954.909 72.6477C955.345 71.8002 955.963 71.1397 956.763 70.6662C957.563 70.188 958.515 69.9489 959.618 69.9489C960.57 69.9489 961.403 70.1217 962.118 70.4673C962.833 70.813 963.399 71.2983 963.816 71.9233C964.232 72.5483 964.462 73.2822 964.505 74.125H961.65C961.569 73.5805 961.356 73.1425 961.01 72.8111C960.669 72.4749 960.222 72.3068 959.668 72.3068C959.199 72.3068 958.79 72.4347 958.439 72.6903C958.094 72.9413 957.824 73.3082 957.63 73.7912C957.435 74.2741 957.338 74.8589 957.338 75.5455C957.338 76.2415 957.433 76.8333 957.623 77.321C957.817 77.8087 958.089 78.1804 958.439 78.4361C958.79 78.6918 959.199 78.8196 959.668 78.8196C960.014 78.8196 960.324 78.7486 960.598 78.6065C960.878 78.4645 961.107 78.2585 961.287 77.9886C961.472 77.714 961.593 77.3849 961.65 77.0014H964.505C964.457 77.8348 964.23 78.5687 963.823 79.2031C963.42 79.8329 962.864 80.3253 962.154 80.6804C961.444 81.0355 960.603 81.2131 959.632 81.2131ZM969.553 81.206C968.857 81.206 968.236 81.0852 967.692 80.8438C967.147 80.5975 966.716 80.2353 966.399 79.7571C966.087 79.2741 965.93 78.6728 965.93 77.9531C965.93 77.3471 966.042 76.8381 966.264 76.4261C966.487 76.0142 966.79 75.6828 967.173 75.4318C967.557 75.1809 967.992 74.9915 968.48 74.8636C968.973 74.7358 969.489 74.6458 970.028 74.5938C970.663 74.5275 971.174 74.4659 971.562 74.4091C971.951 74.3475 972.232 74.2576 972.408 74.1392C972.583 74.0208 972.67 73.8456 972.67 73.6136V73.571C972.67 73.1212 972.528 72.7732 972.244 72.527C971.965 72.2808 971.567 72.1577 971.051 72.1577C970.507 72.1577 970.073 72.2784 969.751 72.5199C969.429 72.7566 969.216 73.0549 969.112 73.4148L966.314 73.1875C966.456 72.5246 966.735 71.9517 967.152 71.4688C967.569 70.9811 968.106 70.607 968.764 70.3466C969.427 70.0814 970.194 69.9489 971.065 69.9489C971.671 69.9489 972.251 70.0199 972.805 70.1619C973.364 70.304 973.859 70.5241 974.29 70.8224C974.725 71.1207 975.069 71.5043 975.32 71.973C975.571 72.437 975.696 72.9934 975.696 73.642V81H972.827V79.4872H972.741C972.566 79.8281 972.332 80.1288 972.038 80.3892C971.745 80.6449 971.392 80.8461 970.98 80.9929C970.568 81.1349 970.092 81.206 969.553 81.206ZM970.419 79.1179C970.864 79.1179 971.257 79.0303 971.598 78.8551C971.939 78.6752 972.206 78.4337 972.401 78.1307C972.595 77.8277 972.692 77.4844 972.692 77.1009V75.9432C972.597 76.0047 972.467 76.0616 972.301 76.1136C972.14 76.161 971.958 76.206 971.754 76.2486C971.551 76.2865 971.347 76.322 971.143 76.3551C970.94 76.3835 970.755 76.4096 970.589 76.4332C970.234 76.4853 969.924 76.5682 969.659 76.6818C969.394 76.7955 969.188 76.9493 969.041 77.1435C968.894 77.3329 968.821 77.5696 968.821 77.8537C968.821 78.2656 968.97 78.5805 969.268 78.7983C969.571 79.0114 969.955 79.1179 970.419 79.1179ZM983.846 70.0909V72.3636H977.276V70.0909H983.846ZM978.768 67.4773H981.793V77.6477C981.793 77.9271 981.836 78.1449 981.921 78.3011C982.006 78.4527 982.125 78.5592 982.276 78.6207C982.433 78.6823 982.612 78.7131 982.816 78.7131C982.958 78.7131 983.1 78.7012 983.242 78.6776C983.384 78.6491 983.493 78.6278 983.569 78.6136L984.045 80.8651C983.893 80.9124 983.68 80.9669 983.406 81.0284C983.131 81.0947 982.797 81.1349 982.404 81.1491C981.675 81.1776 981.036 81.0805 980.487 80.858C979.942 80.6354 979.518 80.2898 979.215 79.821C978.912 79.3523 978.763 78.7604 978.768 78.0455V67.4773ZM985.817 81V70.0909H988.842V81H985.817ZM987.337 68.6847C986.887 68.6847 986.501 68.5355 986.179 68.2372C985.862 67.9342 985.703 67.572 985.703 67.1506C985.703 66.7339 985.862 66.3764 986.179 66.0781C986.501 65.7751 986.887 65.6236 987.337 65.6236C987.786 65.6236 988.17 65.7751 988.487 66.0781C988.809 66.3764 988.97 66.7339 988.97 67.1506C988.97 67.572 988.809 67.9342 988.487 68.2372C988.17 68.5355 987.786 68.6847 987.337 68.6847ZM996.195 81.2131C995.092 81.2131 994.138 80.9787 993.333 80.5099C992.533 80.0365 991.915 79.3783 991.479 78.5355C991.043 77.688 990.826 76.7055 990.826 75.5881C990.826 74.4612 991.043 73.4763 991.479 72.6335C991.915 71.786 992.533 71.1278 993.333 70.6591C994.138 70.1856 995.092 69.9489 996.195 69.9489C997.298 69.9489 998.25 70.1856 999.05 70.6591C999.855 71.1278 1000.48 71.786 1000.91 72.6335C1001.35 73.4763 1001.56 74.4612 1001.56 75.5881C1001.56 76.7055 1001.35 77.688 1000.91 78.5355C1000.48 79.3783 999.855 80.0365 999.05 80.5099C998.25 80.9787 997.298 81.2131 996.195 81.2131ZM996.209 78.8693C996.711 78.8693 997.13 78.7273 997.466 78.4432C997.802 78.1544 998.056 77.7614 998.226 77.2642C998.401 76.767 998.489 76.2012 998.489 75.5668C998.489 74.9323 998.401 74.3665 998.226 73.8693C998.056 73.3722 997.802 72.9792 997.466 72.6903C997.13 72.4015 996.711 72.2571 996.209 72.2571C995.703 72.2571 995.276 72.4015 994.931 72.6903C994.59 72.9792 994.332 73.3722 994.157 73.8693C993.986 74.3665 993.901 74.9323 993.901 75.5668C993.901 76.2012 993.986 76.767 994.157 77.2642C994.332 77.7614 994.59 78.1544 994.931 78.4432C995.276 78.7273 995.703 78.8693 996.209 78.8693ZM1006.56 74.6932V81H1003.53V70.0909H1006.42V72.0156H1006.54C1006.78 71.3812 1007.19 70.8793 1007.76 70.5099C1008.33 70.1359 1009.01 69.9489 1009.82 69.9489C1010.58 69.9489 1011.24 70.1146 1011.81 70.446C1012.37 70.7775 1012.81 71.2509 1013.12 71.8665C1013.43 72.4773 1013.59 73.2064 1013.59 74.054V81H1010.56V74.5938C1010.57 73.9261 1010.4 73.4053 1010.05 73.0312C1009.71 72.6525 1009.23 72.4631 1008.62 72.4631C1008.22 72.4631 1007.86 72.5507 1007.54 72.7259C1007.24 72.901 1007 73.1567 1006.82 73.4929C1006.65 73.8243 1006.56 74.2244 1006.56 74.6932ZM1025.05 73.2017L1022.28 73.3722C1022.23 73.1354 1022.13 72.9223 1021.97 72.733C1021.82 72.5388 1021.61 72.3849 1021.36 72.2713C1021.11 72.1529 1020.8 72.0938 1020.45 72.0938C1019.99 72.0938 1019.59 72.1932 1019.27 72.392C1018.95 72.5862 1018.79 72.8466 1018.79 73.1733C1018.79 73.4337 1018.89 73.6539 1019.1 73.8338C1019.31 74.0137 1019.66 74.1581 1020.17 74.267L1022.14 74.6648C1023.21 74.8826 1024 75.233 1024.52 75.7159C1025.04 76.1989 1025.3 76.8333 1025.3 77.6193C1025.3 78.3343 1025.09 78.9616 1024.67 79.5014C1024.25 80.0412 1023.68 80.4626 1022.95 80.7656C1022.22 81.0639 1021.39 81.2131 1020.44 81.2131C1019 81.2131 1017.85 80.9124 1016.99 80.3111C1016.14 79.705 1015.64 78.8812 1015.49 77.8395L1018.47 77.6832C1018.56 78.1236 1018.77 78.4598 1019.12 78.6918C1019.46 78.919 1019.91 79.0327 1020.45 79.0327C1020.98 79.0327 1021.4 78.9309 1021.73 78.7273C1022.05 78.5189 1022.22 78.2514 1022.22 77.9247C1022.22 77.6501 1022.1 77.4252 1021.88 77.25C1021.65 77.0701 1021.3 76.9328 1020.82 76.8381L1018.93 76.4616C1017.87 76.2486 1017.08 75.8793 1016.56 75.3537C1016.04 74.8281 1015.78 74.1581 1015.78 73.3438C1015.78 72.643 1015.97 72.0393 1016.35 71.5327C1016.73 71.026 1017.27 70.6354 1017.96 70.3608C1018.66 70.0862 1019.47 69.9489 1020.4 69.9489C1021.78 69.9489 1022.87 70.2401 1023.66 70.8224C1024.45 71.4048 1024.92 72.1979 1025.05 73.2017Z" fill="white"/>
<path d="M701.507 304.455V319H698.432V307.374H698.347L695.016 309.462V306.734L698.616 304.455H701.507ZM710.667 319.32C709.446 319.315 708.395 319.014 707.514 318.418C706.638 317.821 705.963 316.957 705.49 315.825C705.021 314.694 704.789 313.332 704.794 311.741C704.794 310.155 705.028 308.804 705.497 307.686C705.97 306.569 706.645 305.719 707.521 305.136C708.402 304.549 709.45 304.256 710.667 304.256C711.884 304.256 712.931 304.549 713.806 305.136C714.687 305.723 715.364 306.576 715.838 307.693C716.311 308.806 716.546 310.155 716.541 311.741C716.541 313.337 716.304 314.701 715.831 315.832C715.362 316.964 714.69 317.828 713.814 318.425C712.938 319.021 711.889 319.32 710.667 319.32ZM710.667 316.77C711.501 316.77 712.166 316.351 712.663 315.513C713.16 314.675 713.406 313.418 713.402 311.741C713.402 310.638 713.288 309.72 713.061 308.986C712.838 308.252 712.521 307.7 712.109 307.331C711.702 306.962 711.221 306.777 710.667 306.777C709.839 306.777 709.176 307.191 708.679 308.02C708.181 308.848 707.931 310.089 707.926 311.741C707.926 312.859 708.037 313.792 708.26 314.54C708.487 315.283 708.806 315.842 709.218 316.216C709.63 316.585 710.113 316.77 710.667 316.77ZM726.695 316.273V315.506C726.695 314.923 726.818 314.388 727.065 313.901C727.316 313.408 727.678 313.015 728.151 312.722C728.629 312.423 729.212 312.274 729.898 312.274C730.594 312.274 731.179 312.421 731.653 312.714C732.131 313.008 732.491 313.401 732.732 313.893C732.978 314.381 733.102 314.919 733.102 315.506V316.273C733.102 316.855 732.978 317.393 732.732 317.885C732.486 318.373 732.124 318.763 731.646 319.057C731.167 319.355 730.585 319.504 729.898 319.504C729.202 319.504 728.618 319.355 728.144 319.057C727.671 318.763 727.311 318.373 727.065 317.885C726.818 317.393 726.695 316.855 726.695 316.273ZM728.762 315.506V316.273C728.762 316.609 728.843 316.926 729.004 317.224C729.169 317.523 729.468 317.672 729.898 317.672C730.329 317.672 730.623 317.525 730.779 317.232C730.94 316.938 731.021 316.618 731.021 316.273V315.506C731.021 315.16 730.945 314.838 730.793 314.54C730.642 314.241 730.344 314.092 729.898 314.092C729.472 314.092 729.176 314.241 729.011 314.54C728.845 314.838 728.762 315.16 728.762 315.506ZM719.231 307.949V307.182C719.231 306.595 719.356 306.057 719.607 305.57C719.858 305.077 720.22 304.684 720.694 304.391C721.172 304.097 721.75 303.95 722.427 303.95C723.128 303.95 723.715 304.097 724.188 304.391C724.662 304.684 725.022 305.077 725.268 305.57C725.514 306.057 725.637 306.595 725.637 307.182V307.949C725.637 308.536 725.512 309.073 725.261 309.561C725.014 310.049 724.652 310.439 724.174 310.733C723.701 311.022 723.118 311.166 722.427 311.166C721.736 311.166 721.151 311.019 720.673 310.726C720.199 310.428 719.839 310.037 719.593 309.554C719.352 309.066 719.231 308.531 719.231 307.949ZM721.312 307.182V307.949C721.312 308.295 721.392 308.614 721.553 308.908C721.719 309.201 722.01 309.348 722.427 309.348C722.862 309.348 723.158 309.201 723.315 308.908C723.476 308.614 723.556 308.295 723.556 307.949V307.182C723.556 306.836 723.48 306.514 723.329 306.216C723.177 305.918 722.877 305.768 722.427 305.768C722.005 305.768 721.714 305.92 721.553 306.223C721.392 306.526 721.312 306.846 721.312 307.182ZM720.168 319L730.168 304.455H732.029L722.029 319H720.168Z" fill="#2C5282"/>
<path d="M575.555 673.199C574.495 673.199 573.55 673.017 572.722 672.652C571.898 672.283 571.247 671.776 570.768 671.132C570.295 670.483 570.051 669.735 570.037 668.888H573.134C573.152 669.243 573.268 669.555 573.482 669.825C573.699 670.09 573.988 670.296 574.348 670.443C574.708 670.59 575.113 670.663 575.562 670.663C576.031 670.663 576.446 670.58 576.805 670.415C577.165 670.249 577.447 670.019 577.651 669.726C577.854 669.432 577.956 669.094 577.956 668.71C577.956 668.322 577.847 667.979 577.629 667.68C577.416 667.377 577.108 667.141 576.706 666.97C576.308 666.8 575.835 666.714 575.286 666.714H573.929V664.456H575.286C575.75 664.456 576.159 664.375 576.514 664.214C576.874 664.054 577.153 663.831 577.352 663.547C577.551 663.258 577.651 662.922 577.651 662.538C577.651 662.174 577.563 661.854 577.388 661.58C577.217 661.3 576.976 661.082 576.663 660.926C576.356 660.77 575.996 660.692 575.584 660.692C575.167 660.692 574.786 660.768 574.44 660.919C574.095 661.066 573.818 661.277 573.609 661.551C573.401 661.826 573.29 662.148 573.276 662.517H570.328C570.342 661.679 570.581 660.94 571.045 660.301C571.509 659.662 572.134 659.162 572.92 658.803C573.711 658.438 574.604 658.256 575.598 658.256C576.602 658.256 577.48 658.438 578.233 658.803C578.986 659.167 579.571 659.66 579.987 660.28C580.409 660.895 580.617 661.587 580.612 662.354C580.617 663.168 580.364 663.848 579.852 664.392C579.346 664.937 578.685 665.282 577.871 665.429V665.543C578.941 665.68 579.755 666.052 580.314 666.658C580.877 667.259 581.157 668.012 581.152 668.916C581.157 669.745 580.918 670.481 580.435 671.125C579.956 671.769 579.296 672.276 578.453 672.645C577.61 673.014 576.644 673.199 575.555 673.199ZM588.945 673.199C588.197 673.194 587.475 673.069 586.779 672.822C586.087 672.576 585.467 672.176 584.918 671.622C584.369 671.068 583.933 670.334 583.611 669.42C583.294 668.507 583.135 667.384 583.135 666.054C583.14 664.832 583.28 663.741 583.554 662.78C583.834 661.814 584.231 660.995 584.748 660.322C585.268 659.65 585.891 659.139 586.615 658.788C587.34 658.433 588.152 658.256 589.051 658.256C590.022 658.256 590.879 658.445 591.623 658.824C592.366 659.198 592.962 659.707 593.412 660.351C593.867 660.995 594.141 661.717 594.236 662.517H591.203C591.085 662.01 590.837 661.613 590.458 661.324C590.079 661.035 589.61 660.891 589.051 660.891C588.105 660.891 587.385 661.303 586.892 662.126C586.405 662.95 586.156 664.07 586.147 665.486H586.246C586.464 665.055 586.757 664.688 587.127 664.385C587.501 664.077 587.925 663.843 588.398 663.682C588.876 663.516 589.381 663.433 589.911 663.433C590.773 663.433 591.54 663.637 592.212 664.044C592.884 664.446 593.415 665 593.803 665.706C594.191 666.411 594.385 667.219 594.385 668.128C594.385 669.113 594.156 669.989 593.696 670.756C593.242 671.523 592.605 672.124 591.786 672.56C590.971 672.991 590.025 673.204 588.945 673.199ZM588.931 670.784C589.404 670.784 589.828 670.67 590.202 670.443C590.576 670.216 590.87 669.908 591.083 669.52C591.296 669.132 591.402 668.696 591.402 668.213C591.402 667.73 591.296 667.297 591.083 666.913C590.874 666.53 590.586 666.224 590.216 665.997C589.847 665.77 589.426 665.656 588.952 665.656C588.597 665.656 588.268 665.723 587.965 665.855C587.667 665.988 587.404 666.172 587.176 666.409C586.954 666.646 586.779 666.92 586.651 667.233C586.523 667.541 586.459 667.87 586.459 668.22C586.459 668.689 586.566 669.117 586.779 669.506C586.997 669.894 587.29 670.204 587.659 670.436C588.033 670.668 588.457 670.784 588.931 670.784ZM604.527 670.273V669.506C604.527 668.923 604.65 668.388 604.897 667.901C605.148 667.408 605.51 667.015 605.983 666.722C606.462 666.423 607.044 666.274 607.73 666.274C608.426 666.274 609.011 666.421 609.485 666.714C609.963 667.008 610.323 667.401 610.564 667.893C610.81 668.381 610.934 668.919 610.934 669.506V670.273C610.934 670.855 610.81 671.393 610.564 671.885C610.318 672.373 609.956 672.763 609.478 673.057C608.999 673.355 608.417 673.504 607.73 673.504C607.034 673.504 606.45 673.355 605.976 673.057C605.503 672.763 605.143 672.373 604.897 671.885C604.65 671.393 604.527 670.855 604.527 670.273ZM606.594 669.506V670.273C606.594 670.609 606.675 670.926 606.836 671.224C607.001 671.523 607.3 671.672 607.73 671.672C608.161 671.672 608.455 671.525 608.611 671.232C608.772 670.938 608.853 670.618 608.853 670.273V669.506C608.853 669.16 608.777 668.838 608.625 668.54C608.474 668.241 608.176 668.092 607.73 668.092C607.304 668.092 607.008 668.241 606.843 668.54C606.677 668.838 606.594 669.16 606.594 669.506ZM597.063 661.949V661.182C597.063 660.595 597.188 660.057 597.439 659.57C597.69 659.077 598.052 658.684 598.526 658.391C599.004 658.097 599.582 657.95 600.259 657.95C600.96 657.95 601.547 658.097 602.02 658.391C602.494 658.684 602.854 659.077 603.1 659.57C603.346 660.057 603.469 660.595 603.469 661.182V661.949C603.469 662.536 603.344 663.073 603.093 663.561C602.846 664.049 602.484 664.439 602.006 664.733C601.533 665.022 600.95 665.166 600.259 665.166C599.568 665.166 598.983 665.019 598.505 664.726C598.031 664.428 597.671 664.037 597.425 663.554C597.184 663.066 597.063 662.531 597.063 661.949ZM599.144 661.182V661.949C599.144 662.295 599.224 662.614 599.385 662.908C599.551 663.201 599.842 663.348 600.259 663.348C600.694 663.348 600.99 663.201 601.147 662.908C601.308 662.614 601.388 662.295 601.388 661.949V661.182C601.388 660.836 601.312 660.514 601.161 660.216C601.009 659.918 600.709 659.768 600.259 659.768C599.837 659.768 599.546 659.92 599.385 660.223C599.224 660.526 599.144 660.846 599.144 661.182ZM598 673L608 658.455H609.861L599.861 673H598Z" fill="#2C5282"/>
<path d="M165.491 211.199C164.488 211.199 163.593 211.014 162.807 210.645C162.026 210.276 161.405 209.767 160.946 209.118C160.487 208.469 160.248 207.726 160.229 206.888H163.212C163.245 207.451 163.482 207.908 163.922 208.259C164.362 208.609 164.885 208.784 165.491 208.784C165.974 208.784 166.401 208.678 166.77 208.464C167.144 208.247 167.435 207.946 167.643 207.562C167.857 207.174 167.963 206.729 167.963 206.227C167.963 205.716 167.854 205.266 167.636 204.878C167.423 204.49 167.127 204.187 166.749 203.969C166.37 203.751 165.937 203.64 165.449 203.635C165.023 203.635 164.608 203.723 164.206 203.898C163.808 204.073 163.498 204.312 163.276 204.615L160.541 204.125L161.23 196.455H170.122V198.969H163.766L163.389 202.612H163.474C163.73 202.252 164.116 201.954 164.632 201.717C165.148 201.481 165.726 201.362 166.365 201.362C167.241 201.362 168.022 201.568 168.709 201.98C169.395 202.392 169.938 202.958 170.335 203.678C170.733 204.393 170.929 205.216 170.925 206.149C170.929 207.129 170.702 208 170.243 208.763C169.788 209.52 169.152 210.117 168.332 210.553C167.518 210.983 166.571 211.199 165.491 211.199ZM178.773 211.32C177.551 211.315 176.5 211.014 175.619 210.418C174.743 209.821 174.069 208.957 173.595 207.825C173.126 206.694 172.894 205.332 172.899 203.741C172.899 202.155 173.134 200.804 173.602 199.686C174.076 198.569 174.75 197.719 175.626 197.136C176.507 196.549 177.556 196.256 178.773 196.256C179.99 196.256 181.036 196.549 181.912 197.136C182.793 197.723 183.47 198.576 183.943 199.693C184.417 200.806 184.651 202.155 184.646 203.741C184.646 205.337 184.41 206.701 183.936 207.832C183.467 208.964 182.795 209.828 181.919 210.425C181.043 211.021 179.994 211.32 178.773 211.32ZM178.773 208.77C179.606 208.77 180.271 208.351 180.768 207.513C181.266 206.675 181.512 205.418 181.507 203.741C181.507 202.638 181.393 201.72 181.166 200.986C180.944 200.252 180.626 199.7 180.214 199.331C179.807 198.962 179.327 198.777 178.773 198.777C177.944 198.777 177.281 199.191 176.784 200.02C176.287 200.848 176.036 202.089 176.031 203.741C176.031 204.859 176.143 205.792 176.365 206.54C176.592 207.283 176.912 207.842 177.324 208.216C177.736 208.585 178.219 208.77 178.773 208.77ZM194.801 208.273V207.506C194.801 206.923 194.924 206.388 195.17 205.901C195.421 205.408 195.783 205.015 196.257 204.722C196.735 204.423 197.317 204.274 198.004 204.274C198.7 204.274 199.285 204.421 199.758 204.714C200.236 205.008 200.596 205.401 200.838 205.893C201.084 206.381 201.207 206.919 201.207 207.506V208.273C201.207 208.855 201.084 209.393 200.838 209.885C200.592 210.373 200.229 210.763 199.751 211.057C199.273 211.355 198.69 211.504 198.004 211.504C197.308 211.504 196.723 211.355 196.25 211.057C195.776 210.763 195.416 210.373 195.17 209.885C194.924 209.393 194.801 208.855 194.801 208.273ZM196.868 207.506V208.273C196.868 208.609 196.948 208.926 197.109 209.224C197.275 209.523 197.573 209.672 198.004 209.672C198.435 209.672 198.728 209.525 198.885 209.232C199.046 208.938 199.126 208.618 199.126 208.273V207.506C199.126 207.16 199.05 206.838 198.899 206.54C198.747 206.241 198.449 206.092 198.004 206.092C197.578 206.092 197.282 206.241 197.116 206.54C196.95 206.838 196.868 207.16 196.868 207.506ZM187.336 199.949V199.182C187.336 198.595 187.462 198.057 187.713 197.57C187.964 197.077 188.326 196.684 188.799 196.391C189.278 196.097 189.855 195.95 190.532 195.95C191.233 195.95 191.82 196.097 192.294 196.391C192.767 196.684 193.127 197.077 193.373 197.57C193.619 198.057 193.743 198.595 193.743 199.182V199.949C193.743 200.536 193.617 201.073 193.366 201.561C193.12 202.049 192.758 202.439 192.279 202.733C191.806 203.022 191.224 203.166 190.532 203.166C189.841 203.166 189.256 203.019 188.778 202.726C188.305 202.428 187.945 202.037 187.699 201.554C187.457 201.066 187.336 200.531 187.336 199.949ZM189.417 199.182V199.949C189.417 200.295 189.498 200.614 189.659 200.908C189.824 201.201 190.116 201.348 190.532 201.348C190.968 201.348 191.264 201.201 191.42 200.908C191.581 200.614 191.662 200.295 191.662 199.949V199.182C191.662 198.836 191.586 198.514 191.434 198.216C191.283 197.918 190.982 197.768 190.532 197.768C190.111 197.768 189.82 197.92 189.659 198.223C189.498 198.526 189.417 198.846 189.417 199.182ZM188.274 211L198.274 196.455H200.135L190.135 211H188.274Z" fill="#2D3748"/>
<path d="M631.959 192.443V190.021L638.031 180.455H640.119V183.807H638.884L635.055 189.865V189.979H643.685V192.443H631.959ZM638.94 195V191.705L638.997 190.632V180.455H641.881V195H638.94ZM653.695 192.273V191.506C653.695 190.923 653.818 190.388 654.065 189.901C654.316 189.408 654.678 189.015 655.151 188.722C655.629 188.423 656.212 188.274 656.898 188.274C657.594 188.274 658.179 188.421 658.653 188.714C659.131 189.008 659.491 189.401 659.732 189.893C659.978 190.381 660.102 190.919 660.102 191.506V192.273C660.102 192.855 659.978 193.393 659.732 193.885C659.486 194.373 659.124 194.763 658.646 195.057C658.167 195.355 657.585 195.504 656.898 195.504C656.202 195.504 655.618 195.355 655.144 195.057C654.671 194.763 654.311 194.373 654.065 193.885C653.818 193.393 653.695 192.855 653.695 192.273ZM655.762 191.506V192.273C655.762 192.609 655.843 192.926 656.004 193.224C656.169 193.523 656.468 193.672 656.898 193.672C657.329 193.672 657.623 193.525 657.779 193.232C657.94 192.938 658.021 192.618 658.021 192.273V191.506C658.021 191.16 657.945 190.838 657.793 190.54C657.642 190.241 657.344 190.092 656.898 190.092C656.472 190.092 656.176 190.241 656.011 190.54C655.845 190.838 655.762 191.16 655.762 191.506ZM646.231 183.949V183.182C646.231 182.595 646.356 182.057 646.607 181.57C646.858 181.077 647.22 180.684 647.694 180.391C648.172 180.097 648.75 179.95 649.427 179.95C650.128 179.95 650.715 180.097 651.188 180.391C651.662 180.684 652.022 181.077 652.268 181.57C652.514 182.057 652.637 182.595 652.637 183.182V183.949C652.637 184.536 652.512 185.073 652.261 185.561C652.014 186.049 651.652 186.439 651.174 186.733C650.701 187.022 650.118 187.166 649.427 187.166C648.736 187.166 648.151 187.019 647.673 186.726C647.199 186.428 646.839 186.037 646.593 185.554C646.352 185.066 646.231 184.531 646.231 183.949ZM648.312 183.182V183.949C648.312 184.295 648.392 184.614 648.553 184.908C648.719 185.201 649.01 185.348 649.427 185.348C649.862 185.348 650.158 185.201 650.315 184.908C650.476 184.614 650.556 184.295 650.556 183.949V183.182C650.556 182.836 650.48 182.514 650.329 182.216C650.177 181.918 649.877 181.768 649.427 181.768C649.005 181.768 648.714 181.92 648.553 182.223C648.392 182.526 648.312 182.846 648.312 183.182ZM647.168 195L657.168 180.455H659.029L649.029 195H647.168Z" fill="#2A4365"/>
<path d="M0 0H1128V4.80305H0V0Z" fill="#91A0BA"/>
</svg>
